<mxfile host="Electron" agent="Mozilla/5.0 (Windows NT 10.0; Win64; x64) AppleWebKit/537.36 (KHTML, like Gecko) draw.io/27.0.9 Chrome/134.0.6998.205 Electron/35.4.0 Safari/537.36" version="27.0.9">
  <diagram name="Pagina-1" id="j0DqfQUahqA1FoXbrVam">
    <mxGraphModel dx="3250" dy="1921" grid="1" gridSize="10" guides="1" tooltips="1" connect="1" arrows="1" fold="1" page="1" pageScale="1" pageWidth="1169" pageHeight="827" math="0" shadow="0">
      <root>
        <mxCell id="0" />
        <mxCell id="1" parent="0" />
        <mxCell id="zKXUlakBHKGw7IXt7YeS-2" value="User" style="swimlane;fontStyle=0;childLayout=stackLayout;horizontal=1;startSize=26;fillColor=none;horizontalStack=0;resizeParent=1;resizeParentMax=0;resizeLast=0;collapsible=1;marginBottom=0;whiteSpace=wrap;html=1;labelBackgroundColor=none;" parent="1" vertex="1">
          <mxGeometry x="-620" y="-260" width="140" height="116" as="geometry" />
        </mxCell>
        <mxCell id="zKXUlakBHKGw7IXt7YeS-3" value="&lt;div&gt;username{id}&lt;/div&gt;" style="text;strokeColor=none;fillColor=none;align=left;verticalAlign=top;spacingLeft=4;spacingRight=4;overflow=hidden;rotatable=0;points=[[0,0.5],[1,0.5]];portConstraint=eastwest;whiteSpace=wrap;html=1;labelBackgroundColor=none;" parent="zKXUlakBHKGw7IXt7YeS-2" vertex="1">
          <mxGeometry y="26" width="140" height="30" as="geometry" />
        </mxCell>
        <mxCell id="y5apXLOZBL3ZthfMlJ1x-1" value="mail[0...1]" style="text;strokeColor=none;fillColor=none;align=left;verticalAlign=top;spacingLeft=4;spacingRight=4;overflow=hidden;rotatable=0;points=[[0,0.5],[1,0.5]];portConstraint=eastwest;whiteSpace=wrap;html=1;labelBackgroundColor=none;" parent="zKXUlakBHKGw7IXt7YeS-2" vertex="1">
          <mxGeometry y="56" width="140" height="30" as="geometry" />
        </mxCell>
        <mxCell id="zKXUlakBHKGw7IXt7YeS-8" value="password" style="text;strokeColor=none;fillColor=none;align=left;verticalAlign=top;spacingLeft=4;spacingRight=4;overflow=hidden;rotatable=0;points=[[0,0.5],[1,0.5]];portConstraint=eastwest;whiteSpace=wrap;html=1;labelBackgroundColor=none;" parent="zKXUlakBHKGw7IXt7YeS-2" vertex="1">
          <mxGeometry y="86" width="140" height="30" as="geometry" />
        </mxCell>
        <mxCell id="zKXUlakBHKGw7IXt7YeS-14" style="edgeStyle=orthogonalEdgeStyle;rounded=0;orthogonalLoop=1;jettySize=auto;html=1;exitX=0.5;exitY=0;exitDx=0;exitDy=0;entryX=0.5;entryY=1;entryDx=0;entryDy=0;labelBackgroundColor=none;" parent="1" source="zKXUlakBHKGw7IXt7YeS-9" target="zKXUlakBHKGw7IXt7YeS-2" edge="1">
          <mxGeometry relative="1" as="geometry" />
        </mxCell>
        <mxCell id="zKXUlakBHKGw7IXt7YeS-9" value="Admin" style="swimlane;fontStyle=0;childLayout=stackLayout;horizontal=1;startSize=26;fillColor=none;horizontalStack=0;resizeParent=1;resizeParentMax=0;resizeLast=0;collapsible=1;marginBottom=0;whiteSpace=wrap;html=1;labelBackgroundColor=none;" parent="1" vertex="1">
          <mxGeometry x="-720" y="-20" width="140" height="56" as="geometry" />
        </mxCell>
        <mxCell id="zKXUlakBHKGw7IXt7YeS-21" style="edgeStyle=orthogonalEdgeStyle;rounded=0;orthogonalLoop=1;jettySize=auto;html=1;exitX=0.5;exitY=0;exitDx=0;exitDy=0;entryX=0.5;entryY=1;entryDx=0;entryDy=0;labelBackgroundColor=none;" parent="1" source="zKXUlakBHKGw7IXt7YeS-15" target="zKXUlakBHKGw7IXt7YeS-2" edge="1">
          <mxGeometry relative="1" as="geometry" />
        </mxCell>
        <mxCell id="zKXUlakBHKGw7IXt7YeS-31" style="rounded=0;orthogonalLoop=1;jettySize=auto;html=1;endArrow=none;startFill=0;entryX=0;entryY=0.166;entryDx=0;entryDy=0;exitX=1;exitY=0.25;exitDx=0;exitDy=0;entryPerimeter=0;jumpStyle=none;labelBackgroundColor=none;" parent="1" source="zKXUlakBHKGw7IXt7YeS-15" target="zKXUlakBHKGw7IXt7YeS-22" edge="1">
          <mxGeometry relative="1" as="geometry">
            <mxPoint x="-370" y="23" as="sourcePoint" />
            <mxPoint x="-280" y="20" as="targetPoint" />
          </mxGeometry>
        </mxCell>
        <mxCell id="zKXUlakBHKGw7IXt7YeS-15" value="Customer" style="swimlane;fontStyle=0;childLayout=stackLayout;horizontal=1;startSize=26;fillColor=none;horizontalStack=0;resizeParent=1;resizeParentMax=0;resizeLast=0;collapsible=1;marginBottom=0;whiteSpace=wrap;html=1;labelBackgroundColor=none;" parent="1" vertex="1">
          <mxGeometry x="-520" y="-20" width="140" height="56" as="geometry" />
        </mxCell>
        <mxCell id="zKXUlakBHKGw7IXt7YeS-22" value="Booking" style="swimlane;fontStyle=0;childLayout=stackLayout;horizontal=1;startSize=26;fillColor=none;horizontalStack=0;resizeParent=1;resizeParentMax=0;resizeLast=0;collapsible=1;marginBottom=0;whiteSpace=wrap;html=1;labelBackgroundColor=none;" parent="1" vertex="1">
          <mxGeometry x="-240" y="-20" width="180" height="86" as="geometry" />
        </mxCell>
        <mxCell id="zKXUlakBHKGw7IXt7YeS-23" value="booking_status: BookingStatus" style="text;strokeColor=none;fillColor=none;align=left;verticalAlign=top;spacingLeft=4;spacingRight=4;overflow=hidden;rotatable=0;points=[[0,0.5],[1,0.5]];portConstraint=eastwest;whiteSpace=wrap;html=1;labelBackgroundColor=none;" parent="zKXUlakBHKGw7IXt7YeS-22" vertex="1">
          <mxGeometry y="26" width="180" height="30" as="geometry" />
        </mxCell>
        <mxCell id="QVnueTWOnMPN7A6_Dv5s-1" value="booking_time" style="text;strokeColor=none;fillColor=none;align=left;verticalAlign=top;spacingLeft=4;spacingRight=4;overflow=hidden;rotatable=0;points=[[0,0.5],[1,0.5]];portConstraint=eastwest;whiteSpace=wrap;html=1;labelBackgroundColor=none;" parent="zKXUlakBHKGw7IXt7YeS-22" vertex="1">
          <mxGeometry y="56" width="180" height="30" as="geometry" />
        </mxCell>
        <mxCell id="zKXUlakBHKGw7IXt7YeS-26" value="&lt;div&gt;&amp;lt;&amp;lt;enumeration&amp;gt;&amp;gt;&lt;/div&gt;&lt;div&gt;BookingStatus&lt;/div&gt;" style="swimlane;fontStyle=1;align=center;verticalAlign=top;childLayout=stackLayout;horizontal=1;startSize=50;horizontalStack=0;resizeParent=1;resizeParentMax=0;resizeLast=0;collapsible=1;marginBottom=0;whiteSpace=wrap;html=1;labelBackgroundColor=none;fillColor=none;" parent="1" vertex="1">
          <mxGeometry x="-239" y="102" width="160" height="140" as="geometry" />
        </mxCell>
        <mxCell id="zKXUlakBHKGw7IXt7YeS-27" value="confirmed" style="text;strokeColor=none;fillColor=none;align=left;verticalAlign=top;spacingLeft=4;spacingRight=4;overflow=hidden;rotatable=0;points=[[0,0.5],[1,0.5]];portConstraint=eastwest;whiteSpace=wrap;html=1;labelBackgroundColor=none;" parent="zKXUlakBHKGw7IXt7YeS-26" vertex="1">
          <mxGeometry y="50" width="160" height="30" as="geometry" />
        </mxCell>
        <mxCell id="oeEvjEDWZwadi100VNtw-4" value="pending" style="text;strokeColor=none;fillColor=none;align=left;verticalAlign=top;spacingLeft=4;spacingRight=4;overflow=hidden;rotatable=0;points=[[0,0.5],[1,0.5]];portConstraint=eastwest;whiteSpace=wrap;html=1;labelBackgroundColor=none;" parent="zKXUlakBHKGw7IXt7YeS-26" vertex="1">
          <mxGeometry y="80" width="160" height="30" as="geometry" />
        </mxCell>
        <mxCell id="oeEvjEDWZwadi100VNtw-3" value="cancelled" style="text;strokeColor=none;fillColor=none;align=left;verticalAlign=top;spacingLeft=4;spacingRight=4;overflow=hidden;rotatable=0;points=[[0,0.5],[1,0.5]];portConstraint=eastwest;whiteSpace=wrap;html=1;labelBackgroundColor=none;" parent="zKXUlakBHKGw7IXt7YeS-26" vertex="1">
          <mxGeometry y="110" width="160" height="30" as="geometry" />
        </mxCell>
        <mxCell id="zKXUlakBHKGw7IXt7YeS-32" value="1...1" style="text;strokeColor=none;align=center;fillColor=none;html=1;verticalAlign=middle;whiteSpace=wrap;rounded=0;labelBackgroundColor=none;" parent="1" vertex="1">
          <mxGeometry x="-380" y="-28" width="30" height="30" as="geometry" />
        </mxCell>
        <mxCell id="zKXUlakBHKGw7IXt7YeS-33" value="0...*" style="text;strokeColor=none;align=center;fillColor=none;html=1;verticalAlign=middle;whiteSpace=wrap;rounded=0;labelBackgroundColor=none;" parent="1" vertex="1">
          <mxGeometry x="-269" y="-28" width="30" height="30" as="geometry" />
        </mxCell>
        <mxCell id="zKXUlakBHKGw7IXt7YeS-35" value="Makes" style="text;strokeColor=none;align=center;fillColor=none;html=1;verticalAlign=middle;whiteSpace=wrap;rounded=0;labelBackgroundColor=none;" parent="1" vertex="1">
          <mxGeometry x="-339" y="-30" width="60" height="30" as="geometry" />
        </mxCell>
        <mxCell id="zKXUlakBHKGw7IXt7YeS-37" value="Passenger" style="swimlane;fontStyle=0;childLayout=stackLayout;horizontal=1;startSize=26;fillColor=none;horizontalStack=0;resizeParent=1;resizeParentMax=0;resizeLast=0;collapsible=1;marginBottom=0;whiteSpace=wrap;html=1;labelBackgroundColor=none;" parent="1" vertex="1">
          <mxGeometry x="-359" y="-333" width="140" height="146" as="geometry" />
        </mxCell>
        <mxCell id="zKXUlakBHKGw7IXt7YeS-38" value="first_name[0...1]" style="text;strokeColor=none;fillColor=none;align=left;verticalAlign=top;spacingLeft=4;spacingRight=4;overflow=hidden;rotatable=0;points=[[0,0.5],[1,0.5]];portConstraint=eastwest;whiteSpace=wrap;html=1;labelBackgroundColor=none;" parent="zKXUlakBHKGw7IXt7YeS-37" vertex="1">
          <mxGeometry y="26" width="140" height="30" as="geometry" />
        </mxCell>
        <mxCell id="zKXUlakBHKGw7IXt7YeS-40" value="last_name[0...1]" style="text;strokeColor=none;fillColor=none;align=left;verticalAlign=top;spacingLeft=4;spacingRight=4;overflow=hidden;rotatable=0;points=[[0,0.5],[1,0.5]];portConstraint=eastwest;whiteSpace=wrap;html=1;labelBackgroundColor=none;" parent="zKXUlakBHKGw7IXt7YeS-37" vertex="1">
          <mxGeometry y="56" width="140" height="30" as="geometry" />
        </mxCell>
        <mxCell id="kUoqiDpx8BOU2FD7ZAct-4" value="birth_date[0...1]" style="text;strokeColor=none;fillColor=none;align=left;verticalAlign=top;spacingLeft=4;spacingRight=4;overflow=hidden;rotatable=0;points=[[0,0.5],[1,0.5]];portConstraint=eastwest;whiteSpace=wrap;html=1;labelBackgroundColor=none;" parent="zKXUlakBHKGw7IXt7YeS-37" vertex="1">
          <mxGeometry y="86" width="140" height="30" as="geometry" />
        </mxCell>
        <mxCell id="zKXUlakBHKGw7IXt7YeS-43" value="SSN: {id}" style="text;strokeColor=none;fillColor=none;align=left;verticalAlign=top;spacingLeft=4;spacingRight=4;overflow=hidden;rotatable=0;points=[[0,0.5],[1,0.5]];portConstraint=eastwest;whiteSpace=wrap;html=1;labelBackgroundColor=none;" parent="zKXUlakBHKGw7IXt7YeS-37" vertex="1">
          <mxGeometry y="116" width="140" height="30" as="geometry" />
        </mxCell>
        <mxCell id="zKXUlakBHKGw7IXt7YeS-44" value="&lt;div&gt;&lt;br&gt;&lt;/div&gt;&lt;div&gt;&lt;br&gt;&lt;/div&gt;" style="endArrow=none;html=1;startArrow=none;startFill=0;align=left;verticalAlign=bottom;rounded=0;labelBackgroundColor=none;endFill=0;" parent="1" source="zKXUlakBHKGw7IXt7YeS-22" target="kUoqiDpx8BOU2FD7ZAct-9" edge="1">
          <mxGeometry x="-0.8676" y="29" relative="1" as="geometry">
            <mxPoint x="-219" y="-272" as="sourcePoint" />
            <mxPoint x="-59" y="-272" as="targetPoint" />
            <mxPoint as="offset" />
          </mxGeometry>
        </mxCell>
        <mxCell id="zKXUlakBHKGw7IXt7YeS-45" value="0...*" style="text;html=1;align=center;verticalAlign=middle;resizable=0;points=[];autosize=1;strokeColor=none;fillColor=none;labelBackgroundColor=none;" parent="1" vertex="1">
          <mxGeometry x="-19" y="-217" width="40" height="30" as="geometry" />
        </mxCell>
        <mxCell id="zKXUlakBHKGw7IXt7YeS-46" value="Flight" style="swimlane;fontStyle=0;childLayout=stackLayout;horizontal=1;startSize=26;fillColor=none;horizontalStack=0;resizeParent=1;resizeParentMax=0;resizeLast=0;collapsible=1;marginBottom=0;whiteSpace=wrap;html=1;labelBackgroundColor=none;" parent="1" vertex="1">
          <mxGeometry x="76" y="-108" width="150" height="266" as="geometry" />
        </mxCell>
        <mxCell id="zKXUlakBHKGw7IXt7YeS-47" value="&lt;div&gt;id_flight&lt;span style=&quot;color: light-dark(rgb(0, 0, 0), rgb(255, 255, 255));&quot;&gt;{id}&lt;/span&gt;&lt;/div&gt;" style="text;strokeColor=none;fillColor=none;align=left;verticalAlign=top;spacingLeft=4;spacingRight=4;overflow=hidden;rotatable=0;points=[[0,0.5],[1,0.5]];portConstraint=eastwest;whiteSpace=wrap;html=1;labelBackgroundColor=none;" parent="zKXUlakBHKGw7IXt7YeS-46" vertex="1">
          <mxGeometry y="26" width="150" height="30" as="geometry" />
        </mxCell>
        <mxCell id="zKXUlakBHKGw7IXt7YeS-48" value="company_name" style="text;strokeColor=none;fillColor=none;align=left;verticalAlign=top;spacingLeft=4;spacingRight=4;overflow=hidden;rotatable=0;points=[[0,0.5],[1,0.5]];portConstraint=eastwest;whiteSpace=wrap;html=1;labelBackgroundColor=none;" parent="zKXUlakBHKGw7IXt7YeS-46" vertex="1">
          <mxGeometry y="56" width="150" height="30" as="geometry" />
        </mxCell>
        <mxCell id="zKXUlakBHKGw7IXt7YeS-49" value="date" style="text;strokeColor=none;fillColor=none;align=left;verticalAlign=top;spacingLeft=4;spacingRight=4;overflow=hidden;rotatable=0;points=[[0,0.5],[1,0.5]];portConstraint=eastwest;whiteSpace=wrap;html=1;labelBackgroundColor=none;" parent="zKXUlakBHKGw7IXt7YeS-46" vertex="1">
          <mxGeometry y="86" width="150" height="30" as="geometry" />
        </mxCell>
        <mxCell id="zKXUlakBHKGw7IXt7YeS-54" value="departure_time" style="text;strokeColor=none;fillColor=none;align=left;verticalAlign=top;spacingLeft=4;spacingRight=4;overflow=hidden;rotatable=0;points=[[0,0.5],[1,0.5]];portConstraint=eastwest;whiteSpace=wrap;html=1;labelBackgroundColor=none;" parent="zKXUlakBHKGw7IXt7YeS-46" vertex="1">
          <mxGeometry y="116" width="150" height="30" as="geometry" />
        </mxCell>
        <mxCell id="zKXUlakBHKGw7IXt7YeS-53" value="arrival_time" style="text;strokeColor=none;fillColor=none;align=left;verticalAlign=top;spacingLeft=4;spacingRight=4;overflow=hidden;rotatable=0;points=[[0,0.5],[1,0.5]];portConstraint=eastwest;whiteSpace=wrap;html=1;labelBackgroundColor=none;" parent="zKXUlakBHKGw7IXt7YeS-46" vertex="1">
          <mxGeometry y="146" width="150" height="30" as="geometry" />
        </mxCell>
        <mxCell id="zKXUlakBHKGw7IXt7YeS-52" value="flight_status: FlightStatus" style="text;strokeColor=none;fillColor=none;align=left;verticalAlign=top;spacingLeft=4;spacingRight=4;overflow=hidden;rotatable=0;points=[[0,0.5],[1,0.5]];portConstraint=eastwest;whiteSpace=wrap;html=1;labelBackgroundColor=none;" parent="zKXUlakBHKGw7IXt7YeS-46" vertex="1">
          <mxGeometry y="176" width="150" height="30" as="geometry" />
        </mxCell>
        <mxCell id="zKXUlakBHKGw7IXt7YeS-51" value="max_seats" style="text;strokeColor=none;fillColor=none;align=left;verticalAlign=top;spacingLeft=4;spacingRight=4;overflow=hidden;rotatable=0;points=[[0,0.5],[1,0.5]];portConstraint=eastwest;whiteSpace=wrap;html=1;labelBackgroundColor=none;" parent="zKXUlakBHKGw7IXt7YeS-46" vertex="1">
          <mxGeometry y="206" width="150" height="30" as="geometry" />
        </mxCell>
        <mxCell id="zKXUlakBHKGw7IXt7YeS-50" value="free_seats" style="text;strokeColor=none;fillColor=none;align=left;verticalAlign=top;spacingLeft=4;spacingRight=4;overflow=hidden;rotatable=0;points=[[0,0.5],[1,0.5]];portConstraint=eastwest;whiteSpace=wrap;html=1;labelBackgroundColor=none;" parent="zKXUlakBHKGw7IXt7YeS-46" vertex="1">
          <mxGeometry y="236" width="150" height="30" as="geometry" />
        </mxCell>
        <mxCell id="zKXUlakBHKGw7IXt7YeS-59" style="rounded=0;orthogonalLoop=1;jettySize=auto;html=1;endArrow=none;startFill=0;labelBackgroundColor=none;" parent="1" source="zKXUlakBHKGw7IXt7YeS-46" target="xyFh1tPfpbjRaV9S5I7g-10" edge="1">
          <mxGeometry relative="1" as="geometry">
            <mxPoint x="331" y="12" as="targetPoint" />
          </mxGeometry>
        </mxCell>
        <mxCell id="zKXUlakBHKGw7IXt7YeS-62" style="edgeStyle=orthogonalEdgeStyle;rounded=0;orthogonalLoop=1;jettySize=auto;html=1;exitX=0.5;exitY=0;exitDx=0;exitDy=0;entryX=0.5;entryY=1;entryDx=0;entryDy=0;labelBackgroundColor=none;" parent="1" source="zKXUlakBHKGw7IXt7YeS-63" target="zKXUlakBHKGw7IXt7YeS-46" edge="1">
          <mxGeometry relative="1" as="geometry">
            <mxPoint x="151" y="143" as="targetPoint" />
          </mxGeometry>
        </mxCell>
        <mxCell id="zKXUlakBHKGw7IXt7YeS-63" value="Departing" style="swimlane;fontStyle=0;childLayout=stackLayout;horizontal=1;startSize=26;fillColor=none;horizontalStack=0;resizeParent=1;resizeParentMax=0;resizeLast=0;collapsible=1;marginBottom=0;whiteSpace=wrap;html=1;labelBackgroundColor=none;" parent="1" vertex="1">
          <mxGeometry x="-69" y="272" width="140" height="86" as="geometry" />
        </mxCell>
        <mxCell id="zKXUlakBHKGw7IXt7YeS-68" value="&lt;div align=&quot;left&quot;&gt;destination&lt;/div&gt;" style="text;html=1;align=left;verticalAlign=middle;resizable=0;points=[];autosize=1;strokeColor=none;fillColor=none;labelBackgroundColor=none;" parent="zKXUlakBHKGw7IXt7YeS-63" vertex="1">
          <mxGeometry y="26" width="140" height="30" as="geometry" />
        </mxCell>
        <mxCell id="zKXUlakBHKGw7IXt7YeS-69" value="&lt;div&gt;departure_delay&lt;span style=&quot;text-wrap-mode: wrap; color: light-dark(rgb(0, 0, 0), rgb(255, 255, 255));&quot;&gt;[0...1]&lt;/span&gt;&lt;/div&gt;" style="text;html=1;align=left;verticalAlign=middle;resizable=0;points=[];autosize=1;strokeColor=none;fillColor=none;labelBackgroundColor=none;" parent="zKXUlakBHKGw7IXt7YeS-63" vertex="1">
          <mxGeometry y="56" width="140" height="30" as="geometry" />
        </mxCell>
        <mxCell id="zKXUlakBHKGw7IXt7YeS-64" style="edgeStyle=orthogonalEdgeStyle;rounded=0;orthogonalLoop=1;jettySize=auto;html=1;exitX=0.5;exitY=0;exitDx=0;exitDy=0;entryX=0.5;entryY=1;entryDx=0;entryDy=0;labelBackgroundColor=none;" parent="1" source="zKXUlakBHKGw7IXt7YeS-65" target="zKXUlakBHKGw7IXt7YeS-46" edge="1">
          <mxGeometry relative="1" as="geometry">
            <mxPoint x="161" y="143" as="targetPoint" />
          </mxGeometry>
        </mxCell>
        <mxCell id="zKXUlakBHKGw7IXt7YeS-65" value="Arriving" style="swimlane;fontStyle=0;childLayout=stackLayout;horizontal=1;startSize=26;fillColor=none;horizontalStack=0;resizeParent=1;resizeParentMax=0;resizeLast=0;collapsible=1;marginBottom=0;whiteSpace=wrap;html=1;labelBackgroundColor=none;" parent="1" vertex="1">
          <mxGeometry x="231" y="272" width="140" height="86" as="geometry" />
        </mxCell>
        <mxCell id="zKXUlakBHKGw7IXt7YeS-72" value="origin" style="text;html=1;align=left;verticalAlign=middle;resizable=0;points=[];autosize=1;strokeColor=none;fillColor=none;labelBackgroundColor=none;" parent="zKXUlakBHKGw7IXt7YeS-65" vertex="1">
          <mxGeometry y="26" width="140" height="30" as="geometry" />
        </mxCell>
        <mxCell id="zKXUlakBHKGw7IXt7YeS-73" value="arrival_delay&lt;span style=&quot;text-wrap-mode: wrap;&quot;&gt;[0...1]&lt;/span&gt;" style="text;html=1;align=left;verticalAlign=middle;resizable=0;points=[];autosize=1;strokeColor=none;fillColor=none;labelBackgroundColor=none;" parent="zKXUlakBHKGw7IXt7YeS-65" vertex="1">
          <mxGeometry y="56" width="140" height="30" as="geometry" />
        </mxCell>
        <mxCell id="zKXUlakBHKGw7IXt7YeS-66" value="{totale, disgiunta}" style="text;html=1;align=center;verticalAlign=middle;resizable=0;points=[];autosize=1;strokeColor=none;fillColor=none;labelBackgroundColor=none;" parent="1" vertex="1">
          <mxGeometry x="-559" y="-138" width="120" height="30" as="geometry" />
        </mxCell>
        <mxCell id="zKXUlakBHKGw7IXt7YeS-67" value="{totale, disgiunta}" style="text;html=1;align=center;verticalAlign=middle;resizable=0;points=[];autosize=1;strokeColor=none;fillColor=none;labelBackgroundColor=none;" parent="1" vertex="1">
          <mxGeometry x="151" y="173" width="120" height="30" as="geometry" />
        </mxCell>
        <mxCell id="zKXUlakBHKGw7IXt7YeS-74" value="Gate" style="swimlane;fontStyle=0;childLayout=stackLayout;horizontal=1;startSize=26;fillColor=none;horizontalStack=0;resizeParent=1;resizeParentMax=0;resizeLast=0;collapsible=1;marginBottom=0;whiteSpace=wrap;html=1;labelBackgroundColor=none;" parent="1" vertex="1">
          <mxGeometry x="395" width="140" height="56" as="geometry" />
        </mxCell>
        <mxCell id="zKXUlakBHKGw7IXt7YeS-75" value="id_gate{id}" style="text;strokeColor=none;fillColor=none;align=left;verticalAlign=top;spacingLeft=4;spacingRight=4;overflow=hidden;rotatable=0;points=[[0,0.5],[1,0.5]];portConstraint=eastwest;whiteSpace=wrap;html=1;labelBackgroundColor=none;" parent="zKXUlakBHKGw7IXt7YeS-74" vertex="1">
          <mxGeometry y="26" width="140" height="30" as="geometry" />
        </mxCell>
        <mxCell id="zKXUlakBHKGw7IXt7YeS-78" value="" style="html=1;verticalAlign=bottom;endArrow=none;curved=0;rounded=0;startFill=0;labelBackgroundColor=none;" parent="1" source="zKXUlakBHKGw7IXt7YeS-74" target="zKXUlakBHKGw7IXt7YeS-46" edge="1">
          <mxGeometry width="80" relative="1" as="geometry">
            <mxPoint x="-209" y="331.57000000000005" as="sourcePoint" />
            <mxPoint x="-129" y="331.57000000000005" as="targetPoint" />
          </mxGeometry>
        </mxCell>
        <mxCell id="zKXUlakBHKGw7IXt7YeS-85" value="0...*" style="text;html=1;align=center;verticalAlign=middle;resizable=0;points=[];autosize=1;strokeColor=none;fillColor=none;labelBackgroundColor=none;" parent="1" vertex="1">
          <mxGeometry x="81" y="-214" width="40" height="30" as="geometry" />
        </mxCell>
        <mxCell id="zKXUlakBHKGw7IXt7YeS-86" value="" style="endArrow=none;endFill=0;html=1;align=left;verticalAlign=top;rounded=0;exitX=1.001;exitY=0.552;exitDx=0;exitDy=0;labelBackgroundColor=none;entryX=0;entryY=0.5;entryDx=0;entryDy=0;exitPerimeter=0;" parent="1" source="zKXUlakBHKGw7IXt7YeS-23" target="zKXUlakBHKGw7IXt7YeS-54" edge="1">
          <mxGeometry x="-1" relative="1" as="geometry">
            <mxPoint x="-99" y="-67" as="sourcePoint" />
            <mxPoint x="71" y="2" as="targetPoint" />
          </mxGeometry>
        </mxCell>
        <mxCell id="zKXUlakBHKGw7IXt7YeS-87" value="0...*" style="edgeLabel;resizable=0;html=1;align=left;verticalAlign=bottom;labelBackgroundColor=none;" parent="zKXUlakBHKGw7IXt7YeS-86" connectable="0" vertex="1">
          <mxGeometry relative="1" as="geometry">
            <mxPoint x="-66" y="1" as="offset" />
          </mxGeometry>
        </mxCell>
        <mxCell id="oeEvjEDWZwadi100VNtw-1" value="" style="edgeStyle=none;curved=1;rounded=0;orthogonalLoop=1;jettySize=auto;html=1;fontSize=12;startSize=8;endSize=8;entryX=1;entryY=0.5;entryDx=0;entryDy=0;exitX=0;exitY=0.5;exitDx=0;exitDy=0;endArrow=none;startFill=0;labelBackgroundColor=none;" parent="1" source="zKXUlakBHKGw7IXt7YeS-91" target="zKXUlakBHKGw7IXt7YeS-108" edge="1">
          <mxGeometry relative="1" as="geometry">
            <mxPoint x="671.4060332541568" y="-220.4999999999999" as="sourcePoint" />
            <mxPoint x="691.0022327790972" y="-83" as="targetPoint" />
          </mxGeometry>
        </mxCell>
        <mxCell id="zKXUlakBHKGw7IXt7YeS-93" value="" style="endArrow=none;html=1;rounded=0;labelBackgroundColor=none;entryX=0.468;entryY=1.044;entryDx=0;entryDy=0;entryPerimeter=0;" parent="1" source="kUoqiDpx8BOU2FD7ZAct-9" target="zKXUlakBHKGw7IXt7YeS-92" edge="1">
          <mxGeometry relative="1" as="geometry">
            <mxPoint x="471" y="-220.5" as="sourcePoint" />
            <mxPoint x="571" y="-257.5" as="targetPoint" />
          </mxGeometry>
        </mxCell>
        <mxCell id="zKXUlakBHKGw7IXt7YeS-94" value="1...1" style="edgeLabel;resizable=0;html=1;align=left;verticalAlign=bottom;labelBackgroundColor=none;" parent="zKXUlakBHKGw7IXt7YeS-93" connectable="0" vertex="1">
          <mxGeometry relative="1" as="geometry">
            <mxPoint x="-31" y="47" as="offset" />
          </mxGeometry>
        </mxCell>
        <mxCell id="zKXUlakBHKGw7IXt7YeS-95" value="0...*" style="edgeLabel;resizable=0;html=1;align=right;verticalAlign=bottom;labelBackgroundColor=none;" parent="zKXUlakBHKGw7IXt7YeS-93" connectable="0" vertex="1">
          <mxGeometry relative="1" as="geometry">
            <mxPoint x="29" y="-34" as="offset" />
          </mxGeometry>
        </mxCell>
        <mxCell id="zKXUlakBHKGw7IXt7YeS-98" value="For" style="text;html=1;align=center;verticalAlign=middle;resizable=0;points=[];autosize=1;strokeColor=none;fillColor=none;labelBackgroundColor=none;" parent="1" vertex="1">
          <mxGeometry x="-19" width="40" height="30" as="geometry" />
        </mxCell>
        <mxCell id="zKXUlakBHKGw7IXt7YeS-99" value="From" style="text;html=1;align=center;verticalAlign=middle;resizable=0;points=[];autosize=1;strokeColor=none;fillColor=none;labelBackgroundColor=none;" parent="1" vertex="1">
          <mxGeometry x="290" y="-7" width="50" height="30" as="geometry" />
        </mxCell>
        <mxCell id="zKXUlakBHKGw7IXt7YeS-100" value="is for" style="text;html=1;align=center;verticalAlign=middle;resizable=0;points=[];autosize=1;strokeColor=none;fillColor=none;labelBackgroundColor=none;" parent="1" vertex="1">
          <mxGeometry x="91" y="-174" width="50" height="30" as="geometry" />
        </mxCell>
        <mxCell id="zKXUlakBHKGw7IXt7YeS-101" value="Includes" style="text;html=1;align=center;verticalAlign=middle;resizable=0;points=[];autosize=1;strokeColor=none;fillColor=none;labelBackgroundColor=none;" parent="1" vertex="1">
          <mxGeometry x="66" y="-388" width="70" height="30" as="geometry" />
        </mxCell>
        <mxCell id="zKXUlakBHKGw7IXt7YeS-103" value="&amp;lt;&amp;lt;enumeration&amp;gt;&amp;gt;&lt;br&gt;LuggageStatus" style="swimlane;fontStyle=0;childLayout=stackLayout;horizontal=1;startSize=39;fillColor=none;horizontalStack=0;resizeParent=1;resizeParentMax=0;resizeLast=0;collapsible=1;marginBottom=0;whiteSpace=wrap;html=1;labelBackgroundColor=none;" parent="1" vertex="1">
          <mxGeometry x="271" y="-560" width="140" height="159" as="geometry" />
        </mxCell>
        <mxCell id="zKXUlakBHKGw7IXt7YeS-104" value="booked" style="text;strokeColor=none;fillColor=none;align=left;verticalAlign=top;spacingLeft=4;spacingRight=4;overflow=hidden;rotatable=0;points=[[0,0.5],[1,0.5]];portConstraint=eastwest;whiteSpace=wrap;html=1;labelBackgroundColor=none;" parent="zKXUlakBHKGw7IXt7YeS-103" vertex="1">
          <mxGeometry y="39" width="140" height="30" as="geometry" />
        </mxCell>
        <mxCell id="zKXUlakBHKGw7IXt7YeS-105" value="loaded" style="text;strokeColor=none;fillColor=none;align=left;verticalAlign=top;spacingLeft=4;spacingRight=4;overflow=hidden;rotatable=0;points=[[0,0.5],[1,0.5]];portConstraint=eastwest;whiteSpace=wrap;html=1;labelBackgroundColor=none;" parent="zKXUlakBHKGw7IXt7YeS-103" vertex="1">
          <mxGeometry y="69" width="140" height="30" as="geometry" />
        </mxCell>
        <mxCell id="zKXUlakBHKGw7IXt7YeS-106" value="withdrawable" style="text;strokeColor=none;fillColor=none;align=left;verticalAlign=top;spacingLeft=4;spacingRight=4;overflow=hidden;rotatable=0;points=[[0,0.5],[1,0.5]];portConstraint=eastwest;whiteSpace=wrap;html=1;labelBackgroundColor=none;" parent="zKXUlakBHKGw7IXt7YeS-103" vertex="1">
          <mxGeometry y="99" width="140" height="30" as="geometry" />
        </mxCell>
        <mxCell id="zKXUlakBHKGw7IXt7YeS-111" value="lost" style="text;strokeColor=none;fillColor=none;align=left;verticalAlign=top;spacingLeft=4;spacingRight=4;overflow=hidden;rotatable=0;points=[[0,0.5],[1,0.5]];portConstraint=eastwest;whiteSpace=wrap;html=1;labelBackgroundColor=none;" parent="zKXUlakBHKGw7IXt7YeS-103" vertex="1">
          <mxGeometry y="129" width="140" height="30" as="geometry" />
        </mxCell>
        <mxCell id="zKXUlakBHKGw7IXt7YeS-107" value="&lt;div&gt;&amp;lt;&amp;lt;enumeration&amp;gt;&amp;gt;&lt;/div&gt;&lt;div&gt;LuggageType&lt;/div&gt;" style="swimlane;fontStyle=0;childLayout=stackLayout;horizontal=1;startSize=37;fillColor=none;horizontalStack=0;resizeParent=1;resizeParentMax=0;resizeLast=0;collapsible=1;marginBottom=0;whiteSpace=wrap;html=1;labelBackgroundColor=none;" parent="1" vertex="1">
          <mxGeometry x="-229" y="-529" width="140" height="97" as="geometry" />
        </mxCell>
        <mxCell id="zKXUlakBHKGw7IXt7YeS-108" value="carry_on" style="text;strokeColor=none;fillColor=none;align=left;verticalAlign=top;spacingLeft=4;spacingRight=4;overflow=hidden;rotatable=0;points=[[0,0.5],[1,0.5]];portConstraint=eastwest;whiteSpace=wrap;html=1;labelBackgroundColor=none;" parent="zKXUlakBHKGw7IXt7YeS-107" vertex="1">
          <mxGeometry y="37" width="140" height="30" as="geometry" />
        </mxCell>
        <mxCell id="zKXUlakBHKGw7IXt7YeS-109" value="checked" style="text;strokeColor=none;fillColor=none;align=left;verticalAlign=top;spacingLeft=4;spacingRight=4;overflow=hidden;rotatable=0;points=[[0,0.5],[1,0.5]];portConstraint=eastwest;whiteSpace=wrap;html=1;labelBackgroundColor=none;" parent="zKXUlakBHKGw7IXt7YeS-107" vertex="1">
          <mxGeometry y="67" width="140" height="30" as="geometry" />
        </mxCell>
        <mxCell id="zKXUlakBHKGw7IXt7YeS-112" value="" style="endArrow=none;html=1;rounded=0;entryX=0;entryY=0.333;entryDx=0;entryDy=0;exitX=1.003;exitY=0.323;exitDx=0;exitDy=0;exitPerimeter=0;entryPerimeter=0;labelBackgroundColor=none;" parent="1" source="zKXUlakBHKGw7IXt7YeS-91" target="zKXUlakBHKGw7IXt7YeS-105" edge="1">
          <mxGeometry relative="1" as="geometry">
            <mxPoint x="591" y="-246.5" as="sourcePoint" />
            <mxPoint x="751" y="-246.5" as="targetPoint" />
          </mxGeometry>
        </mxCell>
        <mxCell id="zKXUlakBHKGw7IXt7YeS-126" value="Admin" style="swimlane;fontStyle=0;childLayout=stackLayout;horizontal=1;startSize=26;fillColor=none;horizontalStack=0;resizeParent=1;resizeParentMax=0;resizeLast=0;collapsible=1;marginBottom=0;whiteSpace=wrap;html=1;align=center;labelBackgroundColor=none;" parent="1" vertex="1">
          <mxGeometry x="-640" y="1330" width="140" height="116" as="geometry" />
        </mxCell>
        <mxCell id="zKXUlakBHKGw7IXt7YeS-206" value="&lt;div&gt;username&lt;span style=&quot;text-wrap-mode: wrap; color: light-dark(rgb(0, 0, 0), rgb(255, 255, 255));&quot;&gt;{id}&lt;/span&gt;&lt;/div&gt;" style="text;html=1;align=left;verticalAlign=middle;resizable=0;points=[];autosize=1;strokeColor=none;fillColor=none;labelBackgroundColor=none;" parent="zKXUlakBHKGw7IXt7YeS-126" vertex="1">
          <mxGeometry y="26" width="140" height="30" as="geometry" />
        </mxCell>
        <mxCell id="y5apXLOZBL3ZthfMlJ1x-2" value="mail" style="text;html=1;align=left;verticalAlign=middle;resizable=0;points=[];autosize=1;strokeColor=none;fillColor=none;labelBackgroundColor=none;" parent="zKXUlakBHKGw7IXt7YeS-126" vertex="1">
          <mxGeometry y="56" width="140" height="30" as="geometry" />
        </mxCell>
        <mxCell id="zKXUlakBHKGw7IXt7YeS-207" value="password" style="text;html=1;align=left;verticalAlign=middle;resizable=0;points=[];autosize=1;strokeColor=none;fillColor=none;labelBackgroundColor=none;" parent="zKXUlakBHKGw7IXt7YeS-126" vertex="1">
          <mxGeometry y="86" width="140" height="30" as="geometry" />
        </mxCell>
        <mxCell id="zKXUlakBHKGw7IXt7YeS-128" style="rounded=0;orthogonalLoop=1;jettySize=auto;html=1;exitX=1;exitY=0.5;exitDx=0;exitDy=0;entryX=0;entryY=0.5;entryDx=0;entryDy=0;endArrow=none;startFill=0;labelBackgroundColor=none;" parent="1" source="zKXUlakBHKGw7IXt7YeS-129" target="zKXUlakBHKGw7IXt7YeS-131" edge="1">
          <mxGeometry relative="1" as="geometry" />
        </mxCell>
        <mxCell id="zKXUlakBHKGw7IXt7YeS-129" value="Customer" style="swimlane;fontStyle=0;childLayout=stackLayout;horizontal=1;startSize=26;fillColor=none;horizontalStack=0;resizeParent=1;resizeParentMax=0;resizeLast=0;collapsible=1;marginBottom=0;whiteSpace=wrap;html=1;labelBackgroundColor=none;" parent="1" vertex="1">
          <mxGeometry x="-640" y="1480" width="140" height="116" as="geometry" />
        </mxCell>
        <mxCell id="zKXUlakBHKGw7IXt7YeS-208" value="username&lt;span style=&quot;text-wrap-mode: wrap;&quot;&gt;{id}&lt;/span&gt;" style="text;html=1;align=left;verticalAlign=middle;resizable=0;points=[];autosize=1;strokeColor=none;fillColor=none;labelBackgroundColor=none;" parent="zKXUlakBHKGw7IXt7YeS-129" vertex="1">
          <mxGeometry y="26" width="140" height="30" as="geometry" />
        </mxCell>
        <mxCell id="y5apXLOZBL3ZthfMlJ1x-3" value="mail" style="text;html=1;align=left;verticalAlign=middle;resizable=0;points=[];autosize=1;strokeColor=none;fillColor=none;labelBackgroundColor=none;" parent="zKXUlakBHKGw7IXt7YeS-129" vertex="1">
          <mxGeometry y="56" width="140" height="30" as="geometry" />
        </mxCell>
        <mxCell id="zKXUlakBHKGw7IXt7YeS-209" value="password" style="text;html=1;align=left;verticalAlign=middle;resizable=0;points=[];autosize=1;strokeColor=none;fillColor=none;labelBackgroundColor=none;" parent="zKXUlakBHKGw7IXt7YeS-129" vertex="1">
          <mxGeometry y="86" width="140" height="30" as="geometry" />
        </mxCell>
        <mxCell id="zKXUlakBHKGw7IXt7YeS-130" style="rounded=0;orthogonalLoop=1;jettySize=auto;html=1;endArrow=none;startFill=0;labelBackgroundColor=none;exitX=0.569;exitY=-0.011;exitDx=0;exitDy=0;exitPerimeter=0;" parent="1" source="oeEvjEDWZwadi100VNtw-45" target="zKXUlakBHKGw7IXt7YeS-131" edge="1">
          <mxGeometry relative="1" as="geometry">
            <mxPoint x="-350" y="1410" as="targetPoint" />
            <mxPoint x="-320" y="1470" as="sourcePoint" />
          </mxGeometry>
        </mxCell>
        <mxCell id="zKXUlakBHKGw7IXt7YeS-131" value="Booking" style="swimlane;fontStyle=0;childLayout=stackLayout;horizontal=1;startSize=26;fillColor=none;horizontalStack=0;resizeParent=1;resizeParentMax=0;resizeLast=0;collapsible=1;marginBottom=0;whiteSpace=wrap;html=1;labelBackgroundColor=none;" parent="1" vertex="1">
          <mxGeometry x="-310" y="1500" width="180" height="76" as="geometry" />
        </mxCell>
        <mxCell id="zKXUlakBHKGw7IXt7YeS-132" value="booking_status: BookingStatus" style="text;strokeColor=none;fillColor=none;align=left;verticalAlign=top;spacingLeft=4;spacingRight=4;overflow=hidden;rotatable=0;points=[[0,0.5],[1,0.5]];portConstraint=eastwest;whiteSpace=wrap;html=1;labelBackgroundColor=none;" parent="zKXUlakBHKGw7IXt7YeS-131" vertex="1">
          <mxGeometry y="26" width="180" height="20" as="geometry" />
        </mxCell>
        <mxCell id="QVnueTWOnMPN7A6_Dv5s-2" value="booking_time" style="text;strokeColor=none;fillColor=none;align=left;verticalAlign=top;spacingLeft=4;spacingRight=4;overflow=hidden;rotatable=0;points=[[0,0.5],[1,0.5]];portConstraint=eastwest;whiteSpace=wrap;html=1;labelBackgroundColor=none;" parent="zKXUlakBHKGw7IXt7YeS-131" vertex="1">
          <mxGeometry y="46" width="180" height="30" as="geometry" />
        </mxCell>
        <mxCell id="zKXUlakBHKGw7IXt7YeS-135" value="1...1" style="text;strokeColor=none;align=center;fillColor=none;html=1;verticalAlign=middle;whiteSpace=wrap;rounded=0;labelBackgroundColor=none;" parent="1" vertex="1">
          <mxGeometry x="-500" y="1510" width="60" height="30" as="geometry" />
        </mxCell>
        <mxCell id="zKXUlakBHKGw7IXt7YeS-136" value="0...*" style="text;strokeColor=none;align=center;fillColor=none;html=1;verticalAlign=middle;whiteSpace=wrap;rounded=0;labelBackgroundColor=none;" parent="1" vertex="1">
          <mxGeometry x="-370" y="1510" width="60" height="30" as="geometry" />
        </mxCell>
        <mxCell id="zKXUlakBHKGw7IXt7YeS-137" value="Makes" style="text;strokeColor=none;align=center;fillColor=none;html=1;verticalAlign=middle;whiteSpace=wrap;rounded=0;labelBackgroundColor=none;" parent="1" vertex="1">
          <mxGeometry x="-440" y="1510" width="60" height="30" as="geometry" />
        </mxCell>
        <mxCell id="zKXUlakBHKGw7IXt7YeS-146" value="Flight" style="swimlane;fontStyle=0;childLayout=stackLayout;horizontal=1;startSize=26;fillColor=none;horizontalStack=0;resizeParent=1;resizeParentMax=0;resizeLast=0;collapsible=1;marginBottom=0;whiteSpace=wrap;html=1;labelBackgroundColor=none;" parent="1" vertex="1">
          <mxGeometry x="80" y="1440" width="160" height="356" as="geometry" />
        </mxCell>
        <mxCell id="zKXUlakBHKGw7IXt7YeS-147" value="&lt;div&gt;id_flight&lt;span style=&quot;color: light-dark(rgb(0, 0, 0), rgb(255, 255, 255));&quot;&gt;{id}&lt;/span&gt;&lt;/div&gt;" style="text;strokeColor=none;fillColor=none;align=left;verticalAlign=top;spacingLeft=4;spacingRight=4;overflow=hidden;rotatable=0;points=[[0,0.5],[1,0.5]];portConstraint=eastwest;whiteSpace=wrap;html=1;labelBackgroundColor=none;" parent="zKXUlakBHKGw7IXt7YeS-146" vertex="1">
          <mxGeometry y="26" width="160" height="30" as="geometry" />
        </mxCell>
        <mxCell id="zKXUlakBHKGw7IXt7YeS-148" value="company_name" style="text;strokeColor=none;fillColor=none;align=left;verticalAlign=top;spacingLeft=4;spacingRight=4;overflow=hidden;rotatable=0;points=[[0,0.5],[1,0.5]];portConstraint=eastwest;whiteSpace=wrap;html=1;labelBackgroundColor=none;" parent="zKXUlakBHKGw7IXt7YeS-146" vertex="1">
          <mxGeometry y="56" width="160" height="30" as="geometry" />
        </mxCell>
        <mxCell id="zKXUlakBHKGw7IXt7YeS-149" value="date" style="text;strokeColor=none;fillColor=none;align=left;verticalAlign=top;spacingLeft=4;spacingRight=4;overflow=hidden;rotatable=0;points=[[0,0.5],[1,0.5]];portConstraint=eastwest;whiteSpace=wrap;html=1;labelBackgroundColor=none;" parent="zKXUlakBHKGw7IXt7YeS-146" vertex="1">
          <mxGeometry y="86" width="160" height="30" as="geometry" />
        </mxCell>
        <mxCell id="zKXUlakBHKGw7IXt7YeS-150" value="departure_time" style="text;strokeColor=none;fillColor=none;align=left;verticalAlign=top;spacingLeft=4;spacingRight=4;overflow=hidden;rotatable=0;points=[[0,0.5],[1,0.5]];portConstraint=eastwest;whiteSpace=wrap;html=1;labelBackgroundColor=none;" parent="zKXUlakBHKGw7IXt7YeS-146" vertex="1">
          <mxGeometry y="116" width="160" height="30" as="geometry" />
        </mxCell>
        <mxCell id="zKXUlakBHKGw7IXt7YeS-151" value="arrival_time" style="text;strokeColor=none;fillColor=none;align=left;verticalAlign=top;spacingLeft=4;spacingRight=4;overflow=hidden;rotatable=0;points=[[0,0.5],[1,0.5]];portConstraint=eastwest;whiteSpace=wrap;html=1;labelBackgroundColor=none;" parent="zKXUlakBHKGw7IXt7YeS-146" vertex="1">
          <mxGeometry y="146" width="160" height="30" as="geometry" />
        </mxCell>
        <mxCell id="zKXUlakBHKGw7IXt7YeS-152" value="flight_status: FlightStatus" style="text;strokeColor=none;fillColor=none;align=left;verticalAlign=top;spacingLeft=4;spacingRight=4;overflow=hidden;rotatable=0;points=[[0,0.5],[1,0.5]];portConstraint=eastwest;whiteSpace=wrap;html=1;labelBackgroundColor=none;" parent="zKXUlakBHKGw7IXt7YeS-146" vertex="1">
          <mxGeometry y="176" width="160" height="30" as="geometry" />
        </mxCell>
        <mxCell id="zKXUlakBHKGw7IXt7YeS-153" value="max_seats" style="text;strokeColor=none;fillColor=none;align=left;verticalAlign=top;spacingLeft=4;spacingRight=4;overflow=hidden;rotatable=0;points=[[0,0.5],[1,0.5]];portConstraint=eastwest;whiteSpace=wrap;html=1;labelBackgroundColor=none;" parent="zKXUlakBHKGw7IXt7YeS-146" vertex="1">
          <mxGeometry y="206" width="160" height="30" as="geometry" />
        </mxCell>
        <mxCell id="zKXUlakBHKGw7IXt7YeS-154" value="free_seats" style="text;strokeColor=none;fillColor=none;align=left;verticalAlign=top;spacingLeft=4;spacingRight=4;overflow=hidden;rotatable=0;points=[[0,0.5],[1,0.5]];portConstraint=eastwest;whiteSpace=wrap;html=1;labelBackgroundColor=none;" parent="zKXUlakBHKGw7IXt7YeS-146" vertex="1">
          <mxGeometry y="236" width="160" height="30" as="geometry" />
        </mxCell>
        <mxCell id="zKXUlakBHKGw7IXt7YeS-212" value="destination_or_origin" style="text;strokeColor=none;fillColor=none;align=left;verticalAlign=top;spacingLeft=4;spacingRight=4;overflow=hidden;rotatable=0;points=[[0,0.5],[1,0.5]];portConstraint=eastwest;whiteSpace=wrap;html=1;labelBackgroundColor=none;" parent="zKXUlakBHKGw7IXt7YeS-146" vertex="1">
          <mxGeometry y="266" width="160" height="30" as="geometry" />
        </mxCell>
        <mxCell id="zKXUlakBHKGw7IXt7YeS-211" value="delay[0...1]" style="text;strokeColor=none;fillColor=none;align=left;verticalAlign=top;spacingLeft=4;spacingRight=4;overflow=hidden;rotatable=0;points=[[0,0.5],[1,0.5]];portConstraint=eastwest;whiteSpace=wrap;html=1;labelBackgroundColor=none;" parent="zKXUlakBHKGw7IXt7YeS-146" vertex="1">
          <mxGeometry y="296" width="160" height="30" as="geometry" />
        </mxCell>
        <mxCell id="zKXUlakBHKGw7IXt7YeS-210" value="type" style="text;strokeColor=none;fillColor=none;align=left;verticalAlign=top;spacingLeft=4;spacingRight=4;overflow=hidden;rotatable=0;points=[[0,0.5],[1,0.5]];portConstraint=eastwest;whiteSpace=wrap;html=1;labelBackgroundColor=none;" parent="zKXUlakBHKGw7IXt7YeS-146" vertex="1">
          <mxGeometry y="326" width="160" height="30" as="geometry" />
        </mxCell>
        <mxCell id="zKXUlakBHKGw7IXt7YeS-161" style="rounded=0;orthogonalLoop=1;jettySize=auto;html=1;exitX=1;exitY=0.5;exitDx=0;exitDy=0;endArrow=none;startFill=0;entryX=0;entryY=0.5;entryDx=0;entryDy=0;labelBackgroundColor=none;" parent="1" source="zKXUlakBHKGw7IXt7YeS-150" target="oeEvjEDWZwadi100VNtw-7" edge="1">
          <mxGeometry relative="1" as="geometry">
            <mxPoint x="330" y="1575" as="targetPoint" />
          </mxGeometry>
        </mxCell>
        <mxCell id="zKXUlakBHKGw7IXt7YeS-172" value="Gate" style="swimlane;fontStyle=0;childLayout=stackLayout;horizontal=1;startSize=26;fillColor=none;horizontalStack=0;resizeParent=1;resizeParentMax=0;resizeLast=0;collapsible=1;marginBottom=0;whiteSpace=wrap;html=1;labelBackgroundColor=none;" parent="1" vertex="1">
          <mxGeometry x="420" y="1590" width="140" height="56" as="geometry" />
        </mxCell>
        <mxCell id="zKXUlakBHKGw7IXt7YeS-173" value="id_gate{id}" style="text;strokeColor=none;fillColor=none;align=left;verticalAlign=top;spacingLeft=4;spacingRight=4;overflow=hidden;rotatable=0;points=[[0,0.5],[1,0.5]];portConstraint=eastwest;whiteSpace=wrap;html=1;labelBackgroundColor=none;" parent="zKXUlakBHKGw7IXt7YeS-172" vertex="1">
          <mxGeometry y="26" width="140" height="30" as="geometry" />
        </mxCell>
        <mxCell id="zKXUlakBHKGw7IXt7YeS-174" value="" style="html=1;verticalAlign=bottom;endArrow=none;curved=0;rounded=0;startFill=0;labelBackgroundColor=none;" parent="1" source="zKXUlakBHKGw7IXt7YeS-172" target="zKXUlakBHKGw7IXt7YeS-146" edge="1">
          <mxGeometry width="80" relative="1" as="geometry">
            <mxPoint x="-220" y="1880.5700000000002" as="sourcePoint" />
            <mxPoint x="-80.69999999999982" y="1882.0900000000001" as="targetPoint" />
          </mxGeometry>
        </mxCell>
        <mxCell id="zKXUlakBHKGw7IXt7YeS-175" value="0...1" style="text;html=1;align=center;verticalAlign=middle;resizable=0;points=[];autosize=1;strokeColor=none;fillColor=none;labelBackgroundColor=none;" parent="1" vertex="1">
          <mxGeometry x="370" y="1620" width="50" height="30" as="geometry" />
        </mxCell>
        <mxCell id="zKXUlakBHKGw7IXt7YeS-176" value="0...*" style="text;html=1;align=center;verticalAlign=middle;resizable=0;points=[];autosize=1;strokeColor=none;fillColor=none;labelBackgroundColor=none;" parent="1" vertex="1">
          <mxGeometry x="240" y="1620" width="40" height="30" as="geometry" />
        </mxCell>
        <mxCell id="zKXUlakBHKGw7IXt7YeS-180" value="" style="endArrow=none;endFill=1;html=1;align=left;verticalAlign=top;rounded=0;exitX=1.002;exitY=0.009;exitDx=0;exitDy=0;exitPerimeter=0;entryX=0;entryY=0.5;entryDx=0;entryDy=0;labelBackgroundColor=none;startFill=0;" parent="1" source="zKXUlakBHKGw7IXt7YeS-132" target="zKXUlakBHKGw7IXt7YeS-150" edge="1">
          <mxGeometry x="-1" relative="1" as="geometry">
            <mxPoint x="-100" y="1482" as="sourcePoint" />
            <mxPoint x="60" y="1482" as="targetPoint" />
          </mxGeometry>
        </mxCell>
        <mxCell id="zKXUlakBHKGw7IXt7YeS-181" value="0...*" style="edgeLabel;resizable=0;html=1;align=left;verticalAlign=bottom;labelBackgroundColor=none;" parent="zKXUlakBHKGw7IXt7YeS-180" connectable="0" vertex="1">
          <mxGeometry relative="1" as="geometry">
            <mxPoint x="-95" y="2" as="offset" />
          </mxGeometry>
        </mxCell>
        <mxCell id="zKXUlakBHKGw7IXt7YeS-182" value="1...1" style="text;html=1;align=center;verticalAlign=middle;resizable=0;points=[];autosize=1;strokeColor=none;fillColor=none;labelBackgroundColor=none;" parent="1" vertex="1">
          <mxGeometry x="30" y="1560" width="50" height="30" as="geometry" />
        </mxCell>
        <mxCell id="zKXUlakBHKGw7IXt7YeS-190" value="For" style="text;html=1;align=center;verticalAlign=middle;resizable=0;points=[];autosize=1;strokeColor=none;fillColor=none;labelBackgroundColor=none;" parent="1" vertex="1">
          <mxGeometry x="-70" y="1550" width="40" height="30" as="geometry" />
        </mxCell>
        <mxCell id="zKXUlakBHKGw7IXt7YeS-191" value="From" style="text;html=1;align=center;verticalAlign=middle;resizable=0;points=[];autosize=1;strokeColor=none;fillColor=none;labelBackgroundColor=none;" parent="1" vertex="1">
          <mxGeometry x="301" y="1630" width="50" height="30" as="geometry" />
        </mxCell>
        <mxCell id="y5apXLOZBL3ZthfMlJ1x-4" value="Admin" style="swimlane;fontStyle=0;childLayout=stackLayout;horizontal=1;startSize=26;fillColor=none;horizontalStack=0;resizeParent=1;resizeParentMax=0;resizeLast=0;collapsible=1;marginBottom=0;whiteSpace=wrap;html=1;align=center;labelBackgroundColor=none;" parent="1" vertex="1">
          <mxGeometry x="-620" y="2650" width="140" height="116" as="geometry" />
        </mxCell>
        <mxCell id="y5apXLOZBL3ZthfMlJ1x-5" value="&lt;div&gt;username&lt;span style=&quot;text-wrap-mode: wrap; color: light-dark(rgb(0, 0, 0), rgb(255, 255, 255));&quot;&gt;{id}&lt;/span&gt;&lt;/div&gt;" style="text;html=1;align=left;verticalAlign=middle;resizable=0;points=[];autosize=1;strokeColor=none;fillColor=none;labelBackgroundColor=none;" parent="y5apXLOZBL3ZthfMlJ1x-4" vertex="1">
          <mxGeometry y="26" width="140" height="30" as="geometry" />
        </mxCell>
        <mxCell id="y5apXLOZBL3ZthfMlJ1x-6" value="mail" style="text;html=1;align=left;verticalAlign=middle;resizable=0;points=[];autosize=1;strokeColor=none;fillColor=none;labelBackgroundColor=none;" parent="y5apXLOZBL3ZthfMlJ1x-4" vertex="1">
          <mxGeometry y="56" width="140" height="30" as="geometry" />
        </mxCell>
        <mxCell id="y5apXLOZBL3ZthfMlJ1x-7" value="hashed_password" style="text;html=1;align=left;verticalAlign=middle;resizable=0;points=[];autosize=1;strokeColor=none;fillColor=none;labelBackgroundColor=none;" parent="y5apXLOZBL3ZthfMlJ1x-4" vertex="1">
          <mxGeometry y="86" width="140" height="30" as="geometry" />
        </mxCell>
        <mxCell id="y5apXLOZBL3ZthfMlJ1x-8" style="rounded=0;orthogonalLoop=1;jettySize=auto;html=1;exitX=1;exitY=0.5;exitDx=0;exitDy=0;entryX=0;entryY=0.5;entryDx=0;entryDy=0;endArrow=none;startFill=0;labelBackgroundColor=none;" parent="1" source="y5apXLOZBL3ZthfMlJ1x-9" target="y5apXLOZBL3ZthfMlJ1x-14" edge="1">
          <mxGeometry relative="1" as="geometry" />
        </mxCell>
        <mxCell id="y5apXLOZBL3ZthfMlJ1x-9" value="Customer" style="swimlane;fontStyle=0;childLayout=stackLayout;horizontal=1;startSize=26;fillColor=none;horizontalStack=0;resizeParent=1;resizeParentMax=0;resizeLast=0;collapsible=1;marginBottom=0;whiteSpace=wrap;html=1;labelBackgroundColor=none;" parent="1" vertex="1">
          <mxGeometry x="-620" y="2810" width="140" height="116" as="geometry" />
        </mxCell>
        <mxCell id="y5apXLOZBL3ZthfMlJ1x-10" value="username&lt;span style=&quot;text-wrap-mode: wrap;&quot;&gt;{id}&lt;/span&gt;" style="text;html=1;align=left;verticalAlign=middle;resizable=0;points=[];autosize=1;strokeColor=none;fillColor=none;labelBackgroundColor=none;" parent="y5apXLOZBL3ZthfMlJ1x-9" vertex="1">
          <mxGeometry y="26" width="140" height="30" as="geometry" />
        </mxCell>
        <mxCell id="y5apXLOZBL3ZthfMlJ1x-11" value="mail[0...1]" style="text;html=1;align=left;verticalAlign=middle;resizable=0;points=[];autosize=1;strokeColor=none;fillColor=none;labelBackgroundColor=none;" parent="y5apXLOZBL3ZthfMlJ1x-9" vertex="1">
          <mxGeometry y="56" width="140" height="30" as="geometry" />
        </mxCell>
        <mxCell id="y5apXLOZBL3ZthfMlJ1x-12" value="hashed_password" style="text;html=1;align=left;verticalAlign=middle;resizable=0;points=[];autosize=1;strokeColor=none;fillColor=none;labelBackgroundColor=none;" parent="y5apXLOZBL3ZthfMlJ1x-9" vertex="1">
          <mxGeometry y="86" width="140" height="30" as="geometry" />
        </mxCell>
        <mxCell id="y5apXLOZBL3ZthfMlJ1x-13" style="rounded=0;orthogonalLoop=1;jettySize=auto;html=1;endArrow=none;startFill=0;labelBackgroundColor=none;" parent="1" source="y5apXLOZBL3ZthfMlJ1x-14" target="oeEvjEDWZwadi100VNtw-49" edge="1">
          <mxGeometry relative="1" as="geometry">
            <mxPoint x="-180" y="2740" as="targetPoint" />
          </mxGeometry>
        </mxCell>
        <mxCell id="y5apXLOZBL3ZthfMlJ1x-14" value="Booking" style="swimlane;fontStyle=0;childLayout=stackLayout;horizontal=1;startSize=26;fillColor=none;horizontalStack=0;resizeParent=1;resizeParentMax=0;resizeLast=0;collapsible=1;marginBottom=0;whiteSpace=wrap;html=1;labelBackgroundColor=none;" parent="1" vertex="1">
          <mxGeometry x="-290" y="2810" width="180" height="86" as="geometry" />
        </mxCell>
        <mxCell id="y5apXLOZBL3ZthfMlJ1x-15" value="booking_status: BookingStatus" style="text;strokeColor=none;fillColor=none;align=left;verticalAlign=top;spacingLeft=4;spacingRight=4;overflow=hidden;rotatable=0;points=[[0,0.5],[1,0.5]];portConstraint=eastwest;whiteSpace=wrap;html=1;labelBackgroundColor=none;" parent="y5apXLOZBL3ZthfMlJ1x-14" vertex="1">
          <mxGeometry y="26" width="180" height="30" as="geometry" />
        </mxCell>
        <mxCell id="QVnueTWOnMPN7A6_Dv5s-4" value="booking_time" style="text;strokeColor=none;fillColor=none;align=left;verticalAlign=top;spacingLeft=4;spacingRight=4;overflow=hidden;rotatable=0;points=[[0,0.5],[1,0.5]];portConstraint=eastwest;whiteSpace=wrap;html=1;labelBackgroundColor=none;" parent="y5apXLOZBL3ZthfMlJ1x-14" vertex="1">
          <mxGeometry y="56" width="180" height="30" as="geometry" />
        </mxCell>
        <mxCell id="y5apXLOZBL3ZthfMlJ1x-18" value="1...1" style="text;strokeColor=none;align=center;fillColor=none;html=1;verticalAlign=middle;whiteSpace=wrap;rounded=0;labelBackgroundColor=none;" parent="1" vertex="1">
          <mxGeometry x="-480" y="2830" width="60" height="30" as="geometry" />
        </mxCell>
        <mxCell id="y5apXLOZBL3ZthfMlJ1x-19" value="0...*" style="text;strokeColor=none;align=center;fillColor=none;html=1;verticalAlign=middle;whiteSpace=wrap;rounded=0;labelBackgroundColor=none;" parent="1" vertex="1">
          <mxGeometry x="-340" y="2830" width="60" height="30" as="geometry" />
        </mxCell>
        <mxCell id="y5apXLOZBL3ZthfMlJ1x-20" value="Makes" style="text;strokeColor=none;align=center;fillColor=none;html=1;verticalAlign=middle;whiteSpace=wrap;rounded=0;labelBackgroundColor=none;" parent="1" vertex="1">
          <mxGeometry x="-410" y="2830" width="60" height="30" as="geometry" />
        </mxCell>
        <mxCell id="y5apXLOZBL3ZthfMlJ1x-29" value="Flight" style="swimlane;fontStyle=0;childLayout=stackLayout;horizontal=1;startSize=26;fillColor=none;horizontalStack=0;resizeParent=1;resizeParentMax=0;resizeLast=0;collapsible=1;marginBottom=0;whiteSpace=wrap;html=1;labelBackgroundColor=none;" parent="1" vertex="1">
          <mxGeometry x="100" y="2760" width="160" height="386" as="geometry" />
        </mxCell>
        <mxCell id="y5apXLOZBL3ZthfMlJ1x-30" value="&lt;div&gt;id_flight&lt;span style=&quot;color: light-dark(rgb(0, 0, 0), rgb(255, 255, 255));&quot;&gt;{id}&lt;/span&gt;&lt;/div&gt;" style="text;strokeColor=none;fillColor=none;align=left;verticalAlign=top;spacingLeft=4;spacingRight=4;overflow=hidden;rotatable=0;points=[[0,0.5],[1,0.5]];portConstraint=eastwest;whiteSpace=wrap;html=1;labelBackgroundColor=none;" parent="y5apXLOZBL3ZthfMlJ1x-29" vertex="1">
          <mxGeometry y="26" width="160" height="30" as="geometry" />
        </mxCell>
        <mxCell id="y5apXLOZBL3ZthfMlJ1x-31" value="company_name" style="text;strokeColor=none;fillColor=none;align=left;verticalAlign=top;spacingLeft=4;spacingRight=4;overflow=hidden;rotatable=0;points=[[0,0.5],[1,0.5]];portConstraint=eastwest;whiteSpace=wrap;html=1;labelBackgroundColor=none;" parent="y5apXLOZBL3ZthfMlJ1x-29" vertex="1">
          <mxGeometry y="56" width="160" height="30" as="geometry" />
        </mxCell>
        <mxCell id="y5apXLOZBL3ZthfMlJ1x-32" value="flight_date" style="text;strokeColor=none;fillColor=none;align=left;verticalAlign=top;spacingLeft=4;spacingRight=4;overflow=hidden;rotatable=0;points=[[0,0.5],[1,0.5]];portConstraint=eastwest;whiteSpace=wrap;html=1;labelBackgroundColor=none;" parent="y5apXLOZBL3ZthfMlJ1x-29" vertex="1">
          <mxGeometry y="86" width="160" height="30" as="geometry" />
        </mxCell>
        <mxCell id="y5apXLOZBL3ZthfMlJ1x-33" value="departure_time" style="text;strokeColor=none;fillColor=none;align=left;verticalAlign=top;spacingLeft=4;spacingRight=4;overflow=hidden;rotatable=0;points=[[0,0.5],[1,0.5]];portConstraint=eastwest;whiteSpace=wrap;html=1;labelBackgroundColor=none;" parent="y5apXLOZBL3ZthfMlJ1x-29" vertex="1">
          <mxGeometry y="116" width="160" height="30" as="geometry" />
        </mxCell>
        <mxCell id="y5apXLOZBL3ZthfMlJ1x-34" value="arrival_time" style="text;strokeColor=none;fillColor=none;align=left;verticalAlign=top;spacingLeft=4;spacingRight=4;overflow=hidden;rotatable=0;points=[[0,0.5],[1,0.5]];portConstraint=eastwest;whiteSpace=wrap;html=1;labelBackgroundColor=none;" parent="y5apXLOZBL3ZthfMlJ1x-29" vertex="1">
          <mxGeometry y="146" width="160" height="30" as="geometry" />
        </mxCell>
        <mxCell id="y5apXLOZBL3ZthfMlJ1x-35" value="flight_status: FlightStatus" style="text;strokeColor=none;fillColor=none;align=left;verticalAlign=top;spacingLeft=4;spacingRight=4;overflow=hidden;rotatable=0;points=[[0,0.5],[1,0.5]];portConstraint=eastwest;whiteSpace=wrap;html=1;labelBackgroundColor=none;" parent="y5apXLOZBL3ZthfMlJ1x-29" vertex="1">
          <mxGeometry y="176" width="160" height="30" as="geometry" />
        </mxCell>
        <mxCell id="y5apXLOZBL3ZthfMlJ1x-36" value="max_seats" style="text;strokeColor=none;fillColor=none;align=left;verticalAlign=top;spacingLeft=4;spacingRight=4;overflow=hidden;rotatable=0;points=[[0,0.5],[1,0.5]];portConstraint=eastwest;whiteSpace=wrap;html=1;labelBackgroundColor=none;" parent="y5apXLOZBL3ZthfMlJ1x-29" vertex="1">
          <mxGeometry y="206" width="160" height="30" as="geometry" />
        </mxCell>
        <mxCell id="y5apXLOZBL3ZthfMlJ1x-37" value="free_seats" style="text;strokeColor=none;fillColor=none;align=left;verticalAlign=top;spacingLeft=4;spacingRight=4;overflow=hidden;rotatable=0;points=[[0,0.5],[1,0.5]];portConstraint=eastwest;whiteSpace=wrap;html=1;labelBackgroundColor=none;" parent="y5apXLOZBL3ZthfMlJ1x-29" vertex="1">
          <mxGeometry y="236" width="160" height="30" as="geometry" />
        </mxCell>
        <mxCell id="y5apXLOZBL3ZthfMlJ1x-38" value="destination_or_origin" style="text;strokeColor=none;fillColor=none;align=left;verticalAlign=top;spacingLeft=4;spacingRight=4;overflow=hidden;rotatable=0;points=[[0,0.5],[1,0.5]];portConstraint=eastwest;whiteSpace=wrap;html=1;labelBackgroundColor=none;" parent="y5apXLOZBL3ZthfMlJ1x-29" vertex="1">
          <mxGeometry y="266" width="160" height="30" as="geometry" />
        </mxCell>
        <mxCell id="y5apXLOZBL3ZthfMlJ1x-39" value="flight_delay[0...1]" style="text;strokeColor=none;fillColor=none;align=left;verticalAlign=top;spacingLeft=4;spacingRight=4;overflow=hidden;rotatable=0;points=[[0,0.5],[1,0.5]];portConstraint=eastwest;whiteSpace=wrap;html=1;labelBackgroundColor=none;" parent="y5apXLOZBL3ZthfMlJ1x-29" vertex="1">
          <mxGeometry y="296" width="160" height="30" as="geometry" />
        </mxCell>
        <mxCell id="y5apXLOZBL3ZthfMlJ1x-40" value="flight_type" style="text;strokeColor=none;fillColor=none;align=left;verticalAlign=top;spacingLeft=4;spacingRight=4;overflow=hidden;rotatable=0;points=[[0,0.5],[1,0.5]];portConstraint=eastwest;whiteSpace=wrap;html=1;labelBackgroundColor=none;" parent="y5apXLOZBL3ZthfMlJ1x-29" vertex="1">
          <mxGeometry y="326" width="160" height="30" as="geometry" />
        </mxCell>
        <mxCell id="y5apXLOZBL3ZthfMlJ1x-81" value="id_gate[0...1]" style="text;strokeColor=none;fillColor=none;align=left;verticalAlign=top;spacingLeft=4;spacingRight=4;overflow=hidden;rotatable=0;points=[[0,0.5],[1,0.5]];portConstraint=eastwest;whiteSpace=wrap;html=1;labelBackgroundColor=none;" parent="y5apXLOZBL3ZthfMlJ1x-29" vertex="1">
          <mxGeometry y="356" width="160" height="30" as="geometry" />
        </mxCell>
        <mxCell id="y5apXLOZBL3ZthfMlJ1x-47" style="rounded=0;orthogonalLoop=1;jettySize=auto;html=1;exitX=1;exitY=0.5;exitDx=0;exitDy=0;endArrow=none;startFill=0;labelBackgroundColor=none;" parent="1" source="y5apXLOZBL3ZthfMlJ1x-33" target="_CMsbmeQKkCQ8cWOa_Xa-140" edge="1">
          <mxGeometry relative="1" as="geometry">
            <mxPoint x="350" y="2905" as="targetPoint" />
          </mxGeometry>
        </mxCell>
        <mxCell id="y5apXLOZBL3ZthfMlJ1x-56" value="" style="endArrow=none;endFill=1;html=1;align=left;verticalAlign=top;rounded=0;exitX=1.002;exitY=0.009;exitDx=0;exitDy=0;exitPerimeter=0;entryX=0;entryY=0.5;entryDx=0;entryDy=0;labelBackgroundColor=none;startFill=0;" parent="1" source="y5apXLOZBL3ZthfMlJ1x-15" target="y5apXLOZBL3ZthfMlJ1x-33" edge="1">
          <mxGeometry x="-1" relative="1" as="geometry">
            <mxPoint x="-80" y="2800" as="sourcePoint" />
            <mxPoint x="80" y="2800" as="targetPoint" />
          </mxGeometry>
        </mxCell>
        <mxCell id="y5apXLOZBL3ZthfMlJ1x-57" value="0...*" style="edgeLabel;resizable=0;html=1;align=left;verticalAlign=bottom;labelBackgroundColor=none;" parent="y5apXLOZBL3ZthfMlJ1x-56" connectable="0" vertex="1">
          <mxGeometry relative="1" as="geometry">
            <mxPoint x="-96" y="-28" as="offset" />
          </mxGeometry>
        </mxCell>
        <mxCell id="y5apXLOZBL3ZthfMlJ1x-58" value="1...1" style="text;html=1;align=center;verticalAlign=middle;resizable=0;points=[];autosize=1;strokeColor=none;fillColor=none;labelBackgroundColor=none;" parent="1" vertex="1">
          <mxGeometry x="50" y="2880" width="50" height="30" as="geometry" />
        </mxCell>
        <mxCell id="y5apXLOZBL3ZthfMlJ1x-66" value="For" style="text;html=1;align=center;verticalAlign=middle;resizable=0;points=[];autosize=1;strokeColor=none;fillColor=none;labelBackgroundColor=none;" parent="1" vertex="1">
          <mxGeometry x="-50" y="2870" width="40" height="30" as="geometry" />
        </mxCell>
        <mxCell id="xyFh1tPfpbjRaV9S5I7g-10" value="&lt;div&gt;&amp;lt;&amp;lt;enumeration&amp;gt;&amp;gt;&lt;/div&gt;&lt;div&gt;FlightStatus&lt;/div&gt;" style="swimlane;fontStyle=0;childLayout=stackLayout;horizontal=1;startSize=40;fillColor=none;horizontalStack=0;resizeParent=1;resizeParentMax=0;resizeLast=0;collapsible=1;marginBottom=0;whiteSpace=wrap;html=1;labelBackgroundColor=none;" parent="1" vertex="1">
          <mxGeometry x="315" y="-318" width="140" height="250" as="geometry" />
        </mxCell>
        <mxCell id="xyFh1tPfpbjRaV9S5I7g-11" value="programmed" style="text;strokeColor=none;fillColor=none;align=left;verticalAlign=top;spacingLeft=4;spacingRight=4;overflow=hidden;rotatable=0;points=[[0,0.5],[1,0.5]];portConstraint=eastwest;whiteSpace=wrap;html=1;labelBackgroundColor=none;" parent="xyFh1tPfpbjRaV9S5I7g-10" vertex="1">
          <mxGeometry y="40" width="140" height="30" as="geometry" />
        </mxCell>
        <mxCell id="xyFh1tPfpbjRaV9S5I7g-12" value="cancelled" style="text;strokeColor=none;fillColor=none;align=left;verticalAlign=top;spacingLeft=4;spacingRight=4;overflow=hidden;rotatable=0;points=[[0,0.5],[1,0.5]];portConstraint=eastwest;whiteSpace=wrap;html=1;labelBackgroundColor=none;" parent="xyFh1tPfpbjRaV9S5I7g-10" vertex="1">
          <mxGeometry y="70" width="140" height="30" as="geometry" />
        </mxCell>
        <mxCell id="xyFh1tPfpbjRaV9S5I7g-13" value="delayed" style="text;strokeColor=none;fillColor=none;align=left;verticalAlign=top;spacingLeft=4;spacingRight=4;overflow=hidden;rotatable=0;points=[[0,0.5],[1,0.5]];portConstraint=eastwest;whiteSpace=wrap;html=1;labelBackgroundColor=none;" parent="xyFh1tPfpbjRaV9S5I7g-10" vertex="1">
          <mxGeometry y="100" width="140" height="30" as="geometry" />
        </mxCell>
        <mxCell id="xyFh1tPfpbjRaV9S5I7g-14" value="aboutToDepart" style="text;strokeColor=none;fillColor=none;align=left;verticalAlign=top;spacingLeft=4;spacingRight=4;overflow=hidden;rotatable=0;points=[[0,0.5],[1,0.5]];portConstraint=eastwest;whiteSpace=wrap;html=1;labelBackgroundColor=none;" parent="xyFh1tPfpbjRaV9S5I7g-10" vertex="1">
          <mxGeometry y="130" width="140" height="30" as="geometry" />
        </mxCell>
        <mxCell id="xyFh1tPfpbjRaV9S5I7g-15" value="departed" style="text;strokeColor=none;fillColor=none;align=left;verticalAlign=top;spacingLeft=4;spacingRight=4;overflow=hidden;rotatable=0;points=[[0,0.5],[1,0.5]];portConstraint=eastwest;whiteSpace=wrap;html=1;labelBackgroundColor=none;" parent="xyFh1tPfpbjRaV9S5I7g-10" vertex="1">
          <mxGeometry y="160" width="140" height="30" as="geometry" />
        </mxCell>
        <mxCell id="xyFh1tPfpbjRaV9S5I7g-16" value="aboutToArrive" style="text;strokeColor=none;fillColor=none;align=left;verticalAlign=top;spacingLeft=4;spacingRight=4;overflow=hidden;rotatable=0;points=[[0,0.5],[1,0.5]];portConstraint=eastwest;whiteSpace=wrap;html=1;labelBackgroundColor=none;" parent="xyFh1tPfpbjRaV9S5I7g-10" vertex="1">
          <mxGeometry y="190" width="140" height="30" as="geometry" />
        </mxCell>
        <mxCell id="xyFh1tPfpbjRaV9S5I7g-17" value="landed" style="text;strokeColor=none;fillColor=none;align=left;verticalAlign=top;spacingLeft=4;spacingRight=4;overflow=hidden;rotatable=0;points=[[0,0.5],[1,0.5]];portConstraint=eastwest;whiteSpace=wrap;html=1;labelBackgroundColor=none;" parent="xyFh1tPfpbjRaV9S5I7g-10" vertex="1">
          <mxGeometry y="220" width="140" height="30" as="geometry" />
        </mxCell>
        <mxCell id="oeEvjEDWZwadi100VNtw-2" value="" style="group;labelBackgroundColor=none;" parent="1" vertex="1" connectable="0">
          <mxGeometry x="-29" y="-548" width="190" height="116" as="geometry" />
        </mxCell>
        <mxCell id="zKXUlakBHKGw7IXt7YeS-89" value="Luggage" style="swimlane;fontStyle=0;childLayout=stackLayout;horizontal=1;startSize=26;fillColor=none;horizontalStack=0;resizeParent=1;resizeParentMax=0;resizeLast=0;collapsible=1;marginBottom=0;whiteSpace=wrap;html=1;points=[[0,0,0,0,0],[0,0.25,0,0,0],[0,0.5,0,0,0],[0,0.75,0,0,0],[0,1,0,0,0],[0.25,0,0,0,0],[0.25,1,0,0,0],[0.5,0,0,0,0],[0.5,1,0,0,0],[0.75,0,0,0,0],[0.75,1,0,0,0],[1,0,0,0,0],[1,0.25,0,0,0],[1,0.5,0,0,0],[1,0.75,0,0,0],[1,1,0,0,0]];container=0;labelBackgroundColor=none;" parent="oeEvjEDWZwadi100VNtw-2" vertex="1">
          <mxGeometry width="190" height="116" as="geometry" />
        </mxCell>
        <mxCell id="zKXUlakBHKGw7IXt7YeS-90" value="id_luggage_after_check_in[0...1]" style="text;strokeColor=none;fillColor=none;align=left;verticalAlign=top;spacingLeft=4;spacingRight=4;overflow=hidden;rotatable=0;points=[[0,0.5],[1,0.5]];portConstraint=eastwest;whiteSpace=wrap;html=1;labelBackgroundColor=none;" parent="oeEvjEDWZwadi100VNtw-2" vertex="1">
          <mxGeometry y="26" width="190" height="30" as="geometry" />
        </mxCell>
        <mxCell id="zKXUlakBHKGw7IXt7YeS-91" value="type: LuggageType[0...1]" style="text;strokeColor=none;fillColor=none;align=left;verticalAlign=top;spacingLeft=4;spacingRight=4;overflow=hidden;rotatable=0;points=[[0,0.5],[1,0.5]];portConstraint=eastwest;whiteSpace=wrap;html=1;labelBackgroundColor=none;" parent="oeEvjEDWZwadi100VNtw-2" vertex="1">
          <mxGeometry y="56" width="190" height="30" as="geometry" />
        </mxCell>
        <mxCell id="zKXUlakBHKGw7IXt7YeS-92" value="luggage_status: LuggageStatus" style="text;strokeColor=none;fillColor=none;align=left;verticalAlign=top;spacingLeft=4;spacingRight=4;overflow=hidden;rotatable=0;points=[[0,0.5],[1,0.5]];portConstraint=eastwest;whiteSpace=wrap;html=1;labelBackgroundColor=none;" parent="oeEvjEDWZwadi100VNtw-2" vertex="1">
          <mxGeometry y="86" width="190" height="30" as="geometry" />
        </mxCell>
        <mxCell id="oeEvjEDWZwadi100VNtw-5" value="&lt;div&gt;&amp;lt;&amp;lt;enumeration&amp;gt;&amp;gt;&lt;/div&gt;&lt;div&gt;FlightStatus&lt;/div&gt;" style="swimlane;fontStyle=0;childLayout=stackLayout;horizontal=1;startSize=40;fillColor=none;horizontalStack=0;resizeParent=1;resizeParentMax=0;resizeLast=0;collapsible=1;marginBottom=0;whiteSpace=wrap;html=1;labelBackgroundColor=none;" parent="1" vertex="1">
          <mxGeometry x="350" y="1190" width="180" height="250" as="geometry" />
        </mxCell>
        <mxCell id="oeEvjEDWZwadi100VNtw-6" value="programmed" style="text;strokeColor=none;fillColor=none;align=left;verticalAlign=top;spacingLeft=4;spacingRight=4;overflow=hidden;rotatable=0;points=[[0,0.5],[1,0.5]];portConstraint=eastwest;whiteSpace=wrap;html=1;labelBackgroundColor=none;" parent="oeEvjEDWZwadi100VNtw-5" vertex="1">
          <mxGeometry y="40" width="180" height="30" as="geometry" />
        </mxCell>
        <mxCell id="oeEvjEDWZwadi100VNtw-7" value="cancelled" style="text;strokeColor=none;fillColor=none;align=left;verticalAlign=top;spacingLeft=4;spacingRight=4;overflow=hidden;rotatable=0;points=[[0,0.5],[1,0.5]];portConstraint=eastwest;whiteSpace=wrap;html=1;labelBackgroundColor=none;" parent="oeEvjEDWZwadi100VNtw-5" vertex="1">
          <mxGeometry y="70" width="180" height="30" as="geometry" />
        </mxCell>
        <mxCell id="oeEvjEDWZwadi100VNtw-8" value="delayed" style="text;strokeColor=none;fillColor=none;align=left;verticalAlign=top;spacingLeft=4;spacingRight=4;overflow=hidden;rotatable=0;points=[[0,0.5],[1,0.5]];portConstraint=eastwest;whiteSpace=wrap;html=1;labelBackgroundColor=none;" parent="oeEvjEDWZwadi100VNtw-5" vertex="1">
          <mxGeometry y="100" width="180" height="30" as="geometry" />
        </mxCell>
        <mxCell id="oeEvjEDWZwadi100VNtw-9" value="aboutToDepart" style="text;strokeColor=none;fillColor=none;align=left;verticalAlign=top;spacingLeft=4;spacingRight=4;overflow=hidden;rotatable=0;points=[[0,0.5],[1,0.5]];portConstraint=eastwest;whiteSpace=wrap;html=1;labelBackgroundColor=none;" parent="oeEvjEDWZwadi100VNtw-5" vertex="1">
          <mxGeometry y="130" width="180" height="30" as="geometry" />
        </mxCell>
        <mxCell id="oeEvjEDWZwadi100VNtw-10" value="departed" style="text;strokeColor=none;fillColor=none;align=left;verticalAlign=top;spacingLeft=4;spacingRight=4;overflow=hidden;rotatable=0;points=[[0,0.5],[1,0.5]];portConstraint=eastwest;whiteSpace=wrap;html=1;labelBackgroundColor=none;" parent="oeEvjEDWZwadi100VNtw-5" vertex="1">
          <mxGeometry y="160" width="180" height="30" as="geometry" />
        </mxCell>
        <mxCell id="oeEvjEDWZwadi100VNtw-11" value="aboutToArrive" style="text;strokeColor=none;fillColor=none;align=left;verticalAlign=top;spacingLeft=4;spacingRight=4;overflow=hidden;rotatable=0;points=[[0,0.5],[1,0.5]];portConstraint=eastwest;whiteSpace=wrap;html=1;labelBackgroundColor=none;" parent="oeEvjEDWZwadi100VNtw-5" vertex="1">
          <mxGeometry y="190" width="180" height="30" as="geometry" />
        </mxCell>
        <mxCell id="oeEvjEDWZwadi100VNtw-12" value="landed" style="text;strokeColor=none;fillColor=none;align=left;verticalAlign=top;spacingLeft=4;spacingRight=4;overflow=hidden;rotatable=0;points=[[0,0.5],[1,0.5]];portConstraint=eastwest;whiteSpace=wrap;html=1;labelBackgroundColor=none;" parent="oeEvjEDWZwadi100VNtw-5" vertex="1">
          <mxGeometry y="220" width="180" height="30" as="geometry" />
        </mxCell>
        <mxCell id="oeEvjEDWZwadi100VNtw-45" value="&lt;div&gt;&amp;lt;&amp;lt;enumeration&amp;gt;&amp;gt;&lt;/div&gt;&lt;div&gt;BookingStatus&lt;/div&gt;" style="swimlane;fontStyle=1;align=center;verticalAlign=top;childLayout=stackLayout;horizontal=1;startSize=50;horizontalStack=0;resizeParent=1;resizeParentMax=0;resizeLast=0;collapsible=1;marginBottom=0;whiteSpace=wrap;html=1;labelBackgroundColor=none;" parent="1" vertex="1">
          <mxGeometry x="-310" y="1630" width="160" height="140" as="geometry" />
        </mxCell>
        <mxCell id="oeEvjEDWZwadi100VNtw-46" value="confirmed" style="text;strokeColor=none;fillColor=none;align=left;verticalAlign=top;spacingLeft=4;spacingRight=4;overflow=hidden;rotatable=0;points=[[0,0.5],[1,0.5]];portConstraint=eastwest;whiteSpace=wrap;html=1;labelBackgroundColor=none;" parent="oeEvjEDWZwadi100VNtw-45" vertex="1">
          <mxGeometry y="50" width="160" height="30" as="geometry" />
        </mxCell>
        <mxCell id="oeEvjEDWZwadi100VNtw-47" value="pending" style="text;strokeColor=none;fillColor=none;align=left;verticalAlign=top;spacingLeft=4;spacingRight=4;overflow=hidden;rotatable=0;points=[[0,0.5],[1,0.5]];portConstraint=eastwest;whiteSpace=wrap;html=1;labelBackgroundColor=none;" parent="oeEvjEDWZwadi100VNtw-45" vertex="1">
          <mxGeometry y="80" width="160" height="30" as="geometry" />
        </mxCell>
        <mxCell id="oeEvjEDWZwadi100VNtw-48" value="cancelled" style="text;strokeColor=none;fillColor=none;align=left;verticalAlign=top;spacingLeft=4;spacingRight=4;overflow=hidden;rotatable=0;points=[[0,0.5],[1,0.5]];portConstraint=eastwest;whiteSpace=wrap;html=1;labelBackgroundColor=none;" parent="oeEvjEDWZwadi100VNtw-45" vertex="1">
          <mxGeometry y="110" width="160" height="30" as="geometry" />
        </mxCell>
        <mxCell id="oeEvjEDWZwadi100VNtw-49" value="&lt;div&gt;&amp;lt;&amp;lt;enumeration&amp;gt;&amp;gt;&lt;/div&gt;&lt;div&gt;BookingStatus&lt;/div&gt;" style="swimlane;fontStyle=1;align=center;verticalAlign=top;childLayout=stackLayout;horizontal=1;startSize=50;horizontalStack=0;resizeParent=1;resizeParentMax=0;resizeLast=0;collapsible=1;marginBottom=0;whiteSpace=wrap;html=1;labelBackgroundColor=none;" parent="1" vertex="1">
          <mxGeometry x="-279" y="2960" width="160" height="140" as="geometry" />
        </mxCell>
        <mxCell id="oeEvjEDWZwadi100VNtw-50" value="confirmed" style="text;strokeColor=none;fillColor=none;align=left;verticalAlign=top;spacingLeft=4;spacingRight=4;overflow=hidden;rotatable=0;points=[[0,0.5],[1,0.5]];portConstraint=eastwest;whiteSpace=wrap;html=1;labelBackgroundColor=none;" parent="oeEvjEDWZwadi100VNtw-49" vertex="1">
          <mxGeometry y="50" width="160" height="30" as="geometry" />
        </mxCell>
        <mxCell id="oeEvjEDWZwadi100VNtw-51" value="pending" style="text;strokeColor=none;fillColor=none;align=left;verticalAlign=top;spacingLeft=4;spacingRight=4;overflow=hidden;rotatable=0;points=[[0,0.5],[1,0.5]];portConstraint=eastwest;whiteSpace=wrap;html=1;labelBackgroundColor=none;" parent="oeEvjEDWZwadi100VNtw-49" vertex="1">
          <mxGeometry y="80" width="160" height="30" as="geometry" />
        </mxCell>
        <mxCell id="oeEvjEDWZwadi100VNtw-52" value="cancelled" style="text;strokeColor=none;fillColor=none;align=left;verticalAlign=top;spacingLeft=4;spacingRight=4;overflow=hidden;rotatable=0;points=[[0,0.5],[1,0.5]];portConstraint=eastwest;whiteSpace=wrap;html=1;labelBackgroundColor=none;" parent="oeEvjEDWZwadi100VNtw-49" vertex="1">
          <mxGeometry y="110" width="160" height="30" as="geometry" />
        </mxCell>
        <mxCell id="oeEvjEDWZwadi100VNtw-56" value="0...1" style="text;strokeColor=none;align=center;fillColor=none;html=1;verticalAlign=middle;whiteSpace=wrap;rounded=0;fontSize=12;labelBackgroundColor=none;" parent="1" vertex="1">
          <mxGeometry x="365" width="30" height="30" as="geometry" />
        </mxCell>
        <mxCell id="oeEvjEDWZwadi100VNtw-57" value="0...*" style="text;strokeColor=none;align=center;fillColor=none;html=1;verticalAlign=middle;whiteSpace=wrap;rounded=0;fontSize=12;labelBackgroundColor=none;" parent="1" vertex="1">
          <mxGeometry x="231" width="30" height="30" as="geometry" />
        </mxCell>
        <mxCell id="oeEvjEDWZwadi100VNtw-59" value="1...1" style="text;strokeColor=none;align=center;fillColor=none;html=1;verticalAlign=middle;whiteSpace=wrap;rounded=0;fontSize=11;labelBackgroundColor=none;" parent="1" vertex="1">
          <mxGeometry x="41" width="30" height="30" as="geometry" />
        </mxCell>
        <mxCell id="kUoqiDpx8BOU2FD7ZAct-1" value="&amp;lt;&amp;lt;identifier&amp;gt;&amp;gt;" style="text;strokeColor=none;align=center;fillColor=none;html=1;verticalAlign=middle;whiteSpace=wrap;rounded=0;fontSize=11;fontStyle=1" parent="1" vertex="1">
          <mxGeometry x="-339" y="-12" width="60" height="30" as="geometry" />
        </mxCell>
        <mxCell id="kUoqiDpx8BOU2FD7ZAct-9" value="Ticket" style="swimlane;fontStyle=0;childLayout=stackLayout;horizontal=1;startSize=26;fillColor=none;horizontalStack=0;resizeParent=1;resizeParentMax=0;resizeLast=0;collapsible=1;marginBottom=0;whiteSpace=wrap;html=1;" parent="1" vertex="1">
          <mxGeometry x="-4" y="-318" width="140" height="104" as="geometry" />
        </mxCell>
        <mxCell id="kUoqiDpx8BOU2FD7ZAct-10" value="ticket_number{id}" style="text;strokeColor=none;fillColor=none;align=left;verticalAlign=top;spacingLeft=4;spacingRight=4;overflow=hidden;rotatable=0;points=[[0,0.5],[1,0.5]];portConstraint=eastwest;whiteSpace=wrap;html=1;" parent="kUoqiDpx8BOU2FD7ZAct-9" vertex="1">
          <mxGeometry y="26" width="140" height="26" as="geometry" />
        </mxCell>
        <mxCell id="kUoqiDpx8BOU2FD7ZAct-11" value="seat[0...1]" style="text;strokeColor=none;fillColor=none;align=left;verticalAlign=top;spacingLeft=4;spacingRight=4;overflow=hidden;rotatable=0;points=[[0,0.5],[1,0.5]];portConstraint=eastwest;whiteSpace=wrap;html=1;" parent="kUoqiDpx8BOU2FD7ZAct-9" vertex="1">
          <mxGeometry y="52" width="140" height="26" as="geometry" />
        </mxCell>
        <mxCell id="kUoqiDpx8BOU2FD7ZAct-12" value="checked_in[0...*]" style="text;strokeColor=none;fillColor=none;align=left;verticalAlign=top;spacingLeft=4;spacingRight=4;overflow=hidden;rotatable=0;points=[[0,0.5],[1,0.5]];portConstraint=eastwest;whiteSpace=wrap;html=1;" parent="kUoqiDpx8BOU2FD7ZAct-9" vertex="1">
          <mxGeometry y="78" width="140" height="26" as="geometry" />
        </mxCell>
        <mxCell id="kUoqiDpx8BOU2FD7ZAct-16" value="" style="endArrow=none;html=1;rounded=0;fontSize=12;startSize=8;endSize=8;curved=1;" parent="1" source="zKXUlakBHKGw7IXt7YeS-46" target="kUoqiDpx8BOU2FD7ZAct-9" edge="1">
          <mxGeometry width="50" height="50" relative="1" as="geometry">
            <mxPoint x="191" y="-168" as="sourcePoint" />
            <mxPoint x="241" y="-218" as="targetPoint" />
          </mxGeometry>
        </mxCell>
        <mxCell id="kUoqiDpx8BOU2FD7ZAct-17" value="1...1" style="text;strokeColor=none;align=center;fillColor=none;html=1;verticalAlign=middle;whiteSpace=wrap;rounded=0;fontSize=11;" parent="1" vertex="1">
          <mxGeometry x="96" y="-132" width="60" height="30" as="geometry" />
        </mxCell>
        <mxCell id="kUoqiDpx8BOU2FD7ZAct-20" value="" style="endArrow=none;html=1;rounded=0;fontSize=12;startSize=8;endSize=8;curved=1;" parent="1" source="zKXUlakBHKGw7IXt7YeS-22" target="zKXUlakBHKGw7IXt7YeS-26" edge="1">
          <mxGeometry width="50" height="50" relative="1" as="geometry">
            <mxPoint x="-199" y="2" as="sourcePoint" />
            <mxPoint x="-149" y="-48" as="targetPoint" />
          </mxGeometry>
        </mxCell>
        <mxCell id="kUoqiDpx8BOU2FD7ZAct-21" value="1...1" style="text;strokeColor=none;align=center;fillColor=none;html=1;verticalAlign=middle;whiteSpace=wrap;rounded=0;fontSize=11;" parent="1" vertex="1">
          <mxGeometry x="-159" y="-50" width="60" height="30" as="geometry" />
        </mxCell>
        <mxCell id="kUoqiDpx8BOU2FD7ZAct-22" value="" style="endArrow=none;html=1;rounded=0;fontSize=12;startSize=8;endSize=8;curved=1;" parent="1" source="zKXUlakBHKGw7IXt7YeS-37" target="kUoqiDpx8BOU2FD7ZAct-9" edge="1">
          <mxGeometry width="50" height="50" relative="1" as="geometry">
            <mxPoint x="-79" y="-158" as="sourcePoint" />
            <mxPoint x="-29" y="-208" as="targetPoint" />
          </mxGeometry>
        </mxCell>
        <mxCell id="kUoqiDpx8BOU2FD7ZAct-23" value="1...1" style="text;strokeColor=none;align=center;fillColor=none;html=1;verticalAlign=middle;whiteSpace=wrap;rounded=0;fontSize=11;" parent="1" vertex="1">
          <mxGeometry x="-219" y="-290" width="40" height="30" as="geometry" />
        </mxCell>
        <mxCell id="kUoqiDpx8BOU2FD7ZAct-24" value="0...*" style="text;strokeColor=none;align=center;fillColor=none;html=1;verticalAlign=middle;whiteSpace=wrap;rounded=0;fontSize=12;" parent="1" vertex="1">
          <mxGeometry x="-39" y="-290" width="35" height="30" as="geometry" />
        </mxCell>
        <mxCell id="_CMsbmeQKkCQ8cWOa_Xa-1" value="Has" style="text;html=1;align=center;verticalAlign=middle;resizable=0;points=[];autosize=1;strokeColor=none;fillColor=none;" parent="1" vertex="1">
          <mxGeometry x="-139" y="-290" width="40" height="30" as="geometry" />
        </mxCell>
        <mxCell id="_CMsbmeQKkCQ8cWOa_Xa-4" value="Passenger" style="swimlane;fontStyle=0;childLayout=stackLayout;horizontal=1;startSize=26;fillColor=none;horizontalStack=0;resizeParent=1;resizeParentMax=0;resizeLast=0;collapsible=1;marginBottom=0;whiteSpace=wrap;html=1;labelBackgroundColor=none;" parent="1" vertex="1">
          <mxGeometry x="-290" y="1187" width="140" height="146" as="geometry" />
        </mxCell>
        <mxCell id="_CMsbmeQKkCQ8cWOa_Xa-5" value="first_name[0...1]" style="text;strokeColor=none;fillColor=none;align=left;verticalAlign=top;spacingLeft=4;spacingRight=4;overflow=hidden;rotatable=0;points=[[0,0.5],[1,0.5]];portConstraint=eastwest;whiteSpace=wrap;html=1;labelBackgroundColor=none;" parent="_CMsbmeQKkCQ8cWOa_Xa-4" vertex="1">
          <mxGeometry y="26" width="140" height="30" as="geometry" />
        </mxCell>
        <mxCell id="_CMsbmeQKkCQ8cWOa_Xa-6" value="last_name[0...1]" style="text;strokeColor=none;fillColor=none;align=left;verticalAlign=top;spacingLeft=4;spacingRight=4;overflow=hidden;rotatable=0;points=[[0,0.5],[1,0.5]];portConstraint=eastwest;whiteSpace=wrap;html=1;labelBackgroundColor=none;" parent="_CMsbmeQKkCQ8cWOa_Xa-4" vertex="1">
          <mxGeometry y="56" width="140" height="30" as="geometry" />
        </mxCell>
        <mxCell id="_CMsbmeQKkCQ8cWOa_Xa-8" value="birth_date[0...1]" style="text;strokeColor=none;fillColor=none;align=left;verticalAlign=top;spacingLeft=4;spacingRight=4;overflow=hidden;rotatable=0;points=[[0,0.5],[1,0.5]];portConstraint=eastwest;whiteSpace=wrap;html=1;labelBackgroundColor=none;" parent="_CMsbmeQKkCQ8cWOa_Xa-4" vertex="1">
          <mxGeometry y="86" width="140" height="30" as="geometry" />
        </mxCell>
        <mxCell id="_CMsbmeQKkCQ8cWOa_Xa-7" value="SSN: {id}" style="text;strokeColor=none;fillColor=none;align=left;verticalAlign=top;spacingLeft=4;spacingRight=4;overflow=hidden;rotatable=0;points=[[0,0.5],[1,0.5]];portConstraint=eastwest;whiteSpace=wrap;html=1;labelBackgroundColor=none;" parent="_CMsbmeQKkCQ8cWOa_Xa-4" vertex="1">
          <mxGeometry y="116" width="140" height="30" as="geometry" />
        </mxCell>
        <mxCell id="_CMsbmeQKkCQ8cWOa_Xa-9" value="0...*" style="text;html=1;align=center;verticalAlign=middle;resizable=0;points=[];autosize=1;strokeColor=none;fillColor=none;labelBackgroundColor=none;" parent="1" vertex="1">
          <mxGeometry x="35" y="1316" width="40" height="30" as="geometry" />
        </mxCell>
        <mxCell id="_CMsbmeQKkCQ8cWOa_Xa-10" value="0...*" style="text;html=1;align=center;verticalAlign=middle;resizable=0;points=[];autosize=1;strokeColor=none;fillColor=none;labelBackgroundColor=none;" parent="1" vertex="1">
          <mxGeometry x="150" y="1306" width="40" height="30" as="geometry" />
        </mxCell>
        <mxCell id="_CMsbmeQKkCQ8cWOa_Xa-11" value="" style="edgeStyle=none;curved=1;rounded=0;orthogonalLoop=1;jettySize=auto;html=1;fontSize=12;startSize=8;endSize=8;entryX=1;entryY=0.5;entryDx=0;entryDy=0;exitX=0;exitY=0.5;exitDx=0;exitDy=0;endArrow=none;startFill=0;labelBackgroundColor=none;" parent="1" source="_CMsbmeQKkCQ8cWOa_Xa-29" target="_CMsbmeQKkCQ8cWOa_Xa-23" edge="1">
          <mxGeometry relative="1" as="geometry">
            <mxPoint x="740.4060332541567" y="1299.5" as="sourcePoint" />
            <mxPoint x="760.0022327790971" y="1437" as="targetPoint" />
          </mxGeometry>
        </mxCell>
        <mxCell id="_CMsbmeQKkCQ8cWOa_Xa-12" value="" style="endArrow=none;html=1;rounded=0;labelBackgroundColor=none;entryX=0.468;entryY=1.044;entryDx=0;entryDy=0;entryPerimeter=0;" parent="1" source="_CMsbmeQKkCQ8cWOa_Xa-31" target="_CMsbmeQKkCQ8cWOa_Xa-30" edge="1">
          <mxGeometry relative="1" as="geometry">
            <mxPoint x="540" y="1299.5" as="sourcePoint" />
            <mxPoint x="640" y="1262.5" as="targetPoint" />
          </mxGeometry>
        </mxCell>
        <mxCell id="_CMsbmeQKkCQ8cWOa_Xa-13" value="1...1" style="edgeLabel;resizable=0;html=1;align=left;verticalAlign=bottom;labelBackgroundColor=none;" parent="_CMsbmeQKkCQ8cWOa_Xa-12" connectable="0" vertex="1">
          <mxGeometry relative="1" as="geometry">
            <mxPoint x="-31" y="47" as="offset" />
          </mxGeometry>
        </mxCell>
        <mxCell id="_CMsbmeQKkCQ8cWOa_Xa-14" value="0...*" style="edgeLabel;resizable=0;html=1;align=right;verticalAlign=bottom;labelBackgroundColor=none;" parent="_CMsbmeQKkCQ8cWOa_Xa-12" connectable="0" vertex="1">
          <mxGeometry relative="1" as="geometry">
            <mxPoint x="29" y="-34" as="offset" />
          </mxGeometry>
        </mxCell>
        <mxCell id="_CMsbmeQKkCQ8cWOa_Xa-15" value="is for" style="text;html=1;align=center;verticalAlign=middle;resizable=0;points=[];autosize=1;strokeColor=none;fillColor=none;labelBackgroundColor=none;" parent="1" vertex="1">
          <mxGeometry x="160" y="1346" width="50" height="30" as="geometry" />
        </mxCell>
        <mxCell id="_CMsbmeQKkCQ8cWOa_Xa-16" value="Includes" style="text;html=1;align=center;verticalAlign=middle;resizable=0;points=[];autosize=1;strokeColor=none;fillColor=none;labelBackgroundColor=none;" parent="1" vertex="1">
          <mxGeometry x="135" y="1132" width="70" height="30" as="geometry" />
        </mxCell>
        <mxCell id="_CMsbmeQKkCQ8cWOa_Xa-17" value="&amp;lt;&amp;lt;enumeration&amp;gt;&amp;gt;&lt;br&gt;LuggageStatus" style="swimlane;fontStyle=0;childLayout=stackLayout;horizontal=1;startSize=39;fillColor=none;horizontalStack=0;resizeParent=1;resizeParentMax=0;resizeLast=0;collapsible=1;marginBottom=0;whiteSpace=wrap;html=1;labelBackgroundColor=none;" parent="1" vertex="1">
          <mxGeometry x="340" y="960" width="140" height="159" as="geometry" />
        </mxCell>
        <mxCell id="_CMsbmeQKkCQ8cWOa_Xa-18" value="booked" style="text;strokeColor=none;fillColor=none;align=left;verticalAlign=top;spacingLeft=4;spacingRight=4;overflow=hidden;rotatable=0;points=[[0,0.5],[1,0.5]];portConstraint=eastwest;whiteSpace=wrap;html=1;labelBackgroundColor=none;" parent="_CMsbmeQKkCQ8cWOa_Xa-17" vertex="1">
          <mxGeometry y="39" width="140" height="30" as="geometry" />
        </mxCell>
        <mxCell id="_CMsbmeQKkCQ8cWOa_Xa-19" value="loaded" style="text;strokeColor=none;fillColor=none;align=left;verticalAlign=top;spacingLeft=4;spacingRight=4;overflow=hidden;rotatable=0;points=[[0,0.5],[1,0.5]];portConstraint=eastwest;whiteSpace=wrap;html=1;labelBackgroundColor=none;" parent="_CMsbmeQKkCQ8cWOa_Xa-17" vertex="1">
          <mxGeometry y="69" width="140" height="30" as="geometry" />
        </mxCell>
        <mxCell id="_CMsbmeQKkCQ8cWOa_Xa-20" value="withdrawable" style="text;strokeColor=none;fillColor=none;align=left;verticalAlign=top;spacingLeft=4;spacingRight=4;overflow=hidden;rotatable=0;points=[[0,0.5],[1,0.5]];portConstraint=eastwest;whiteSpace=wrap;html=1;labelBackgroundColor=none;" parent="_CMsbmeQKkCQ8cWOa_Xa-17" vertex="1">
          <mxGeometry y="99" width="140" height="30" as="geometry" />
        </mxCell>
        <mxCell id="_CMsbmeQKkCQ8cWOa_Xa-21" value="lost" style="text;strokeColor=none;fillColor=none;align=left;verticalAlign=top;spacingLeft=4;spacingRight=4;overflow=hidden;rotatable=0;points=[[0,0.5],[1,0.5]];portConstraint=eastwest;whiteSpace=wrap;html=1;labelBackgroundColor=none;" parent="_CMsbmeQKkCQ8cWOa_Xa-17" vertex="1">
          <mxGeometry y="129" width="140" height="30" as="geometry" />
        </mxCell>
        <mxCell id="_CMsbmeQKkCQ8cWOa_Xa-22" value="&lt;div&gt;&amp;lt;&amp;lt;enumeration&amp;gt;&amp;gt;&lt;/div&gt;&lt;div&gt;LuggageType&lt;/div&gt;" style="swimlane;fontStyle=0;childLayout=stackLayout;horizontal=1;startSize=37;fillColor=none;horizontalStack=0;resizeParent=1;resizeParentMax=0;resizeLast=0;collapsible=1;marginBottom=0;whiteSpace=wrap;html=1;labelBackgroundColor=none;" parent="1" vertex="1">
          <mxGeometry x="-160" y="991" width="140" height="97" as="geometry" />
        </mxCell>
        <mxCell id="_CMsbmeQKkCQ8cWOa_Xa-23" value="carry_on" style="text;strokeColor=none;fillColor=none;align=left;verticalAlign=top;spacingLeft=4;spacingRight=4;overflow=hidden;rotatable=0;points=[[0,0.5],[1,0.5]];portConstraint=eastwest;whiteSpace=wrap;html=1;labelBackgroundColor=none;" parent="_CMsbmeQKkCQ8cWOa_Xa-22" vertex="1">
          <mxGeometry y="37" width="140" height="30" as="geometry" />
        </mxCell>
        <mxCell id="_CMsbmeQKkCQ8cWOa_Xa-24" value="checked" style="text;strokeColor=none;fillColor=none;align=left;verticalAlign=top;spacingLeft=4;spacingRight=4;overflow=hidden;rotatable=0;points=[[0,0.5],[1,0.5]];portConstraint=eastwest;whiteSpace=wrap;html=1;labelBackgroundColor=none;" parent="_CMsbmeQKkCQ8cWOa_Xa-22" vertex="1">
          <mxGeometry y="67" width="140" height="30" as="geometry" />
        </mxCell>
        <mxCell id="_CMsbmeQKkCQ8cWOa_Xa-25" value="" style="endArrow=none;html=1;rounded=0;entryX=0;entryY=0.333;entryDx=0;entryDy=0;exitX=1.003;exitY=0.323;exitDx=0;exitDy=0;exitPerimeter=0;entryPerimeter=0;labelBackgroundColor=none;" parent="1" source="_CMsbmeQKkCQ8cWOa_Xa-29" target="_CMsbmeQKkCQ8cWOa_Xa-19" edge="1">
          <mxGeometry relative="1" as="geometry">
            <mxPoint x="660" y="1273.5" as="sourcePoint" />
            <mxPoint x="820" y="1273.5" as="targetPoint" />
          </mxGeometry>
        </mxCell>
        <mxCell id="_CMsbmeQKkCQ8cWOa_Xa-26" value="" style="group;labelBackgroundColor=none;" parent="1" vertex="1" connectable="0">
          <mxGeometry x="40" y="972" width="190" height="116" as="geometry" />
        </mxCell>
        <mxCell id="_CMsbmeQKkCQ8cWOa_Xa-27" value="Luggage" style="swimlane;fontStyle=0;childLayout=stackLayout;horizontal=1;startSize=26;fillColor=none;horizontalStack=0;resizeParent=1;resizeParentMax=0;resizeLast=0;collapsible=1;marginBottom=0;whiteSpace=wrap;html=1;points=[[0,0,0,0,0],[0,0.25,0,0,0],[0,0.5,0,0,0],[0,0.75,0,0,0],[0,1,0,0,0],[0.25,0,0,0,0],[0.25,1,0,0,0],[0.5,0,0,0,0],[0.5,1,0,0,0],[0.75,0,0,0,0],[0.75,1,0,0,0],[1,0,0,0,0],[1,0.25,0,0,0],[1,0.5,0,0,0],[1,0.75,0,0,0],[1,1,0,0,0]];container=0;labelBackgroundColor=none;" parent="_CMsbmeQKkCQ8cWOa_Xa-26" vertex="1">
          <mxGeometry width="190" height="116" as="geometry" />
        </mxCell>
        <mxCell id="_CMsbmeQKkCQ8cWOa_Xa-28" value="id_luggage_after_check_in[0...1]" style="text;strokeColor=none;fillColor=none;align=left;verticalAlign=top;spacingLeft=4;spacingRight=4;overflow=hidden;rotatable=0;points=[[0,0.5],[1,0.5]];portConstraint=eastwest;whiteSpace=wrap;html=1;labelBackgroundColor=none;" parent="_CMsbmeQKkCQ8cWOa_Xa-26" vertex="1">
          <mxGeometry y="26" width="190" height="30" as="geometry" />
        </mxCell>
        <mxCell id="_CMsbmeQKkCQ8cWOa_Xa-29" value="type: LuggageType[0...1]" style="text;strokeColor=none;fillColor=none;align=left;verticalAlign=top;spacingLeft=4;spacingRight=4;overflow=hidden;rotatable=0;points=[[0,0.5],[1,0.5]];portConstraint=eastwest;whiteSpace=wrap;html=1;labelBackgroundColor=none;" parent="_CMsbmeQKkCQ8cWOa_Xa-26" vertex="1">
          <mxGeometry y="56" width="190" height="30" as="geometry" />
        </mxCell>
        <mxCell id="_CMsbmeQKkCQ8cWOa_Xa-30" value="luggage_status: LuggageStatus" style="text;strokeColor=none;fillColor=none;align=left;verticalAlign=top;spacingLeft=4;spacingRight=4;overflow=hidden;rotatable=0;points=[[0,0.5],[1,0.5]];portConstraint=eastwest;whiteSpace=wrap;html=1;labelBackgroundColor=none;" parent="_CMsbmeQKkCQ8cWOa_Xa-26" vertex="1">
          <mxGeometry y="86" width="190" height="30" as="geometry" />
        </mxCell>
        <mxCell id="_CMsbmeQKkCQ8cWOa_Xa-31" value="Ticket" style="swimlane;fontStyle=0;childLayout=stackLayout;horizontal=1;startSize=26;fillColor=none;horizontalStack=0;resizeParent=1;resizeParentMax=0;resizeLast=0;collapsible=1;marginBottom=0;whiteSpace=wrap;html=1;" parent="1" vertex="1">
          <mxGeometry x="65" y="1202" width="140" height="104" as="geometry" />
        </mxCell>
        <mxCell id="_CMsbmeQKkCQ8cWOa_Xa-32" value="ticket_number{id}" style="text;strokeColor=none;fillColor=none;align=left;verticalAlign=top;spacingLeft=4;spacingRight=4;overflow=hidden;rotatable=0;points=[[0,0.5],[1,0.5]];portConstraint=eastwest;whiteSpace=wrap;html=1;" parent="_CMsbmeQKkCQ8cWOa_Xa-31" vertex="1">
          <mxGeometry y="26" width="140" height="26" as="geometry" />
        </mxCell>
        <mxCell id="_CMsbmeQKkCQ8cWOa_Xa-33" value="seat[0...1]" style="text;strokeColor=none;fillColor=none;align=left;verticalAlign=top;spacingLeft=4;spacingRight=4;overflow=hidden;rotatable=0;points=[[0,0.5],[1,0.5]];portConstraint=eastwest;whiteSpace=wrap;html=1;" parent="_CMsbmeQKkCQ8cWOa_Xa-31" vertex="1">
          <mxGeometry y="52" width="140" height="26" as="geometry" />
        </mxCell>
        <mxCell id="_CMsbmeQKkCQ8cWOa_Xa-34" value="checked_in[0...*]" style="text;strokeColor=none;fillColor=none;align=left;verticalAlign=top;spacingLeft=4;spacingRight=4;overflow=hidden;rotatable=0;points=[[0,0.5],[1,0.5]];portConstraint=eastwest;whiteSpace=wrap;html=1;" parent="_CMsbmeQKkCQ8cWOa_Xa-31" vertex="1">
          <mxGeometry y="78" width="140" height="26" as="geometry" />
        </mxCell>
        <mxCell id="_CMsbmeQKkCQ8cWOa_Xa-35" value="" style="endArrow=none;html=1;rounded=0;fontSize=12;startSize=8;endSize=8;curved=1;" parent="1" source="zKXUlakBHKGw7IXt7YeS-146" target="_CMsbmeQKkCQ8cWOa_Xa-31" edge="1">
          <mxGeometry width="50" height="50" relative="1" as="geometry">
            <mxPoint x="181" y="1412" as="sourcePoint" />
            <mxPoint x="310" y="1302" as="targetPoint" />
          </mxGeometry>
        </mxCell>
        <mxCell id="_CMsbmeQKkCQ8cWOa_Xa-36" value="1...1" style="text;strokeColor=none;align=center;fillColor=none;html=1;verticalAlign=middle;whiteSpace=wrap;rounded=0;fontSize=11;" parent="1" vertex="1">
          <mxGeometry x="165" y="1388" width="60" height="30" as="geometry" />
        </mxCell>
        <mxCell id="_CMsbmeQKkCQ8cWOa_Xa-37" value="" style="endArrow=none;html=1;rounded=0;fontSize=12;startSize=8;endSize=8;curved=1;" parent="1" source="_CMsbmeQKkCQ8cWOa_Xa-4" target="_CMsbmeQKkCQ8cWOa_Xa-31" edge="1">
          <mxGeometry width="50" height="50" relative="1" as="geometry">
            <mxPoint x="-10" y="1362" as="sourcePoint" />
            <mxPoint x="40" y="1312" as="targetPoint" />
          </mxGeometry>
        </mxCell>
        <mxCell id="_CMsbmeQKkCQ8cWOa_Xa-38" value="1...1" style="text;strokeColor=none;align=center;fillColor=none;html=1;verticalAlign=middle;whiteSpace=wrap;rounded=0;fontSize=11;" parent="1" vertex="1">
          <mxGeometry x="-150" y="1230" width="40" height="30" as="geometry" />
        </mxCell>
        <mxCell id="_CMsbmeQKkCQ8cWOa_Xa-39" value="0...*" style="text;strokeColor=none;align=center;fillColor=none;html=1;verticalAlign=middle;whiteSpace=wrap;rounded=0;fontSize=12;" parent="1" vertex="1">
          <mxGeometry x="30" y="1230" width="35" height="30" as="geometry" />
        </mxCell>
        <mxCell id="_CMsbmeQKkCQ8cWOa_Xa-40" value="Has" style="text;html=1;align=center;verticalAlign=middle;resizable=0;points=[];autosize=1;strokeColor=none;fillColor=none;" parent="1" vertex="1">
          <mxGeometry x="-70" y="1230" width="40" height="30" as="geometry" />
        </mxCell>
        <mxCell id="_CMsbmeQKkCQ8cWOa_Xa-41" value="Includes" style="text;html=1;align=center;verticalAlign=middle;resizable=0;points=[];autosize=1;strokeColor=none;fillColor=none;" parent="1" vertex="1">
          <mxGeometry x="-119" y="-132" width="70" height="30" as="geometry" />
        </mxCell>
        <mxCell id="_CMsbmeQKkCQ8cWOa_Xa-42" value="&lt;div&gt;&lt;br&gt;&lt;/div&gt;&lt;div&gt;&lt;br&gt;&lt;/div&gt;" style="endArrow=none;html=1;startArrow=none;startFill=0;align=left;verticalAlign=bottom;rounded=0;labelBackgroundColor=none;endFill=0;" parent="1" source="zKXUlakBHKGw7IXt7YeS-131" target="_CMsbmeQKkCQ8cWOa_Xa-31" edge="1">
          <mxGeometry x="-0.8676" y="29" relative="1" as="geometry">
            <mxPoint x="-70" y="1380" as="sourcePoint" />
            <mxPoint x="75" y="1186" as="targetPoint" />
            <mxPoint as="offset" />
          </mxGeometry>
        </mxCell>
        <mxCell id="_CMsbmeQKkCQ8cWOa_Xa-43" value="1...1" style="text;html=1;align=center;verticalAlign=middle;resizable=0;points=[];autosize=1;strokeColor=none;fillColor=none;" parent="1" vertex="1">
          <mxGeometry x="-190" y="1460" width="50" height="30" as="geometry" />
        </mxCell>
        <mxCell id="_CMsbmeQKkCQ8cWOa_Xa-44" value="Includes" style="text;html=1;align=center;verticalAlign=middle;resizable=0;points=[];autosize=1;strokeColor=none;fillColor=none;" parent="1" vertex="1">
          <mxGeometry x="-130" y="1388" width="70" height="30" as="geometry" />
        </mxCell>
        <mxCell id="_CMsbmeQKkCQ8cWOa_Xa-46" value="&amp;lt;&amp;lt;identifier&amp;gt;&amp;gt;" style="text;strokeColor=none;align=center;fillColor=none;html=1;verticalAlign=middle;whiteSpace=wrap;rounded=0;fontSize=11;fontStyle=1" parent="1" vertex="1">
          <mxGeometry x="-439" y="1546" width="60" height="30" as="geometry" />
        </mxCell>
        <mxCell id="_CMsbmeQKkCQ8cWOa_Xa-140" value="&lt;div&gt;&amp;lt;&amp;lt;enumeration&amp;gt;&amp;gt;&lt;/div&gt;&lt;div&gt;FlightStatus&lt;/div&gt;" style="swimlane;fontStyle=0;childLayout=stackLayout;horizontal=1;startSize=40;fillColor=none;horizontalStack=0;resizeParent=1;resizeParentMax=0;resizeLast=0;collapsible=1;marginBottom=0;whiteSpace=wrap;html=1;labelBackgroundColor=none;" parent="1" vertex="1">
          <mxGeometry x="405" y="2766" width="180" height="250" as="geometry" />
        </mxCell>
        <mxCell id="_CMsbmeQKkCQ8cWOa_Xa-141" value="programmed" style="text;strokeColor=none;fillColor=none;align=left;verticalAlign=top;spacingLeft=4;spacingRight=4;overflow=hidden;rotatable=0;points=[[0,0.5],[1,0.5]];portConstraint=eastwest;whiteSpace=wrap;html=1;labelBackgroundColor=none;" parent="_CMsbmeQKkCQ8cWOa_Xa-140" vertex="1">
          <mxGeometry y="40" width="180" height="30" as="geometry" />
        </mxCell>
        <mxCell id="_CMsbmeQKkCQ8cWOa_Xa-142" value="cancelled" style="text;strokeColor=none;fillColor=none;align=left;verticalAlign=top;spacingLeft=4;spacingRight=4;overflow=hidden;rotatable=0;points=[[0,0.5],[1,0.5]];portConstraint=eastwest;whiteSpace=wrap;html=1;labelBackgroundColor=none;" parent="_CMsbmeQKkCQ8cWOa_Xa-140" vertex="1">
          <mxGeometry y="70" width="180" height="30" as="geometry" />
        </mxCell>
        <mxCell id="_CMsbmeQKkCQ8cWOa_Xa-143" value="delayed" style="text;strokeColor=none;fillColor=none;align=left;verticalAlign=top;spacingLeft=4;spacingRight=4;overflow=hidden;rotatable=0;points=[[0,0.5],[1,0.5]];portConstraint=eastwest;whiteSpace=wrap;html=1;labelBackgroundColor=none;" parent="_CMsbmeQKkCQ8cWOa_Xa-140" vertex="1">
          <mxGeometry y="100" width="180" height="30" as="geometry" />
        </mxCell>
        <mxCell id="_CMsbmeQKkCQ8cWOa_Xa-144" value="aboutToDepart" style="text;strokeColor=none;fillColor=none;align=left;verticalAlign=top;spacingLeft=4;spacingRight=4;overflow=hidden;rotatable=0;points=[[0,0.5],[1,0.5]];portConstraint=eastwest;whiteSpace=wrap;html=1;labelBackgroundColor=none;" parent="_CMsbmeQKkCQ8cWOa_Xa-140" vertex="1">
          <mxGeometry y="130" width="180" height="30" as="geometry" />
        </mxCell>
        <mxCell id="_CMsbmeQKkCQ8cWOa_Xa-145" value="departed" style="text;strokeColor=none;fillColor=none;align=left;verticalAlign=top;spacingLeft=4;spacingRight=4;overflow=hidden;rotatable=0;points=[[0,0.5],[1,0.5]];portConstraint=eastwest;whiteSpace=wrap;html=1;labelBackgroundColor=none;" parent="_CMsbmeQKkCQ8cWOa_Xa-140" vertex="1">
          <mxGeometry y="160" width="180" height="30" as="geometry" />
        </mxCell>
        <mxCell id="_CMsbmeQKkCQ8cWOa_Xa-146" value="aboutToArrive" style="text;strokeColor=none;fillColor=none;align=left;verticalAlign=top;spacingLeft=4;spacingRight=4;overflow=hidden;rotatable=0;points=[[0,0.5],[1,0.5]];portConstraint=eastwest;whiteSpace=wrap;html=1;labelBackgroundColor=none;" parent="_CMsbmeQKkCQ8cWOa_Xa-140" vertex="1">
          <mxGeometry y="190" width="180" height="30" as="geometry" />
        </mxCell>
        <mxCell id="_CMsbmeQKkCQ8cWOa_Xa-147" value="landed" style="text;strokeColor=none;fillColor=none;align=left;verticalAlign=top;spacingLeft=4;spacingRight=4;overflow=hidden;rotatable=0;points=[[0,0.5],[1,0.5]];portConstraint=eastwest;whiteSpace=wrap;html=1;labelBackgroundColor=none;" parent="_CMsbmeQKkCQ8cWOa_Xa-140" vertex="1">
          <mxGeometry y="220" width="180" height="30" as="geometry" />
        </mxCell>
        <mxCell id="_CMsbmeQKkCQ8cWOa_Xa-148" value="Passenger" style="swimlane;fontStyle=0;childLayout=stackLayout;horizontal=1;startSize=26;fillColor=none;horizontalStack=0;resizeParent=1;resizeParentMax=0;resizeLast=0;collapsible=1;marginBottom=0;whiteSpace=wrap;html=1;labelBackgroundColor=none;" parent="1" vertex="1">
          <mxGeometry x="-235" y="2496" width="140" height="146" as="geometry">
            <mxRectangle x="-235" y="2496" width="100" height="30" as="alternateBounds" />
          </mxGeometry>
        </mxCell>
        <mxCell id="_CMsbmeQKkCQ8cWOa_Xa-149" value="first_name[0...1]" style="text;strokeColor=none;fillColor=none;align=left;verticalAlign=top;spacingLeft=4;spacingRight=4;overflow=hidden;rotatable=0;points=[[0,0.5],[1,0.5]];portConstraint=eastwest;whiteSpace=wrap;html=1;labelBackgroundColor=none;" parent="_CMsbmeQKkCQ8cWOa_Xa-148" vertex="1">
          <mxGeometry y="26" width="140" height="30" as="geometry" />
        </mxCell>
        <mxCell id="030pE28pj1UEi7QVVv2Z-1" value="last_name[0...1]" style="text;strokeColor=none;fillColor=none;align=left;verticalAlign=top;spacingLeft=4;spacingRight=4;overflow=hidden;rotatable=0;points=[[0,0.5],[1,0.5]];portConstraint=eastwest;whiteSpace=wrap;html=1;labelBackgroundColor=none;" vertex="1" parent="_CMsbmeQKkCQ8cWOa_Xa-148">
          <mxGeometry y="56" width="140" height="30" as="geometry" />
        </mxCell>
        <mxCell id="_CMsbmeQKkCQ8cWOa_Xa-152" value="birth_date[0...1]" style="text;strokeColor=none;fillColor=none;align=left;verticalAlign=top;spacingLeft=4;spacingRight=4;overflow=hidden;rotatable=0;points=[[0,0.5],[1,0.5]];portConstraint=eastwest;whiteSpace=wrap;html=1;labelBackgroundColor=none;" parent="_CMsbmeQKkCQ8cWOa_Xa-148" vertex="1">
          <mxGeometry y="86" width="140" height="30" as="geometry" />
        </mxCell>
        <mxCell id="_CMsbmeQKkCQ8cWOa_Xa-151" value="SSN: {id}" style="text;strokeColor=none;fillColor=none;align=left;verticalAlign=top;spacingLeft=4;spacingRight=4;overflow=hidden;rotatable=0;points=[[0,0.5],[1,0.5]];portConstraint=eastwest;whiteSpace=wrap;html=1;labelBackgroundColor=none;" parent="_CMsbmeQKkCQ8cWOa_Xa-148" vertex="1">
          <mxGeometry y="116" width="140" height="30" as="geometry" />
        </mxCell>
        <mxCell id="_CMsbmeQKkCQ8cWOa_Xa-153" value="0...*" style="text;html=1;align=center;verticalAlign=middle;resizable=0;points=[];autosize=1;strokeColor=none;fillColor=none;labelBackgroundColor=none;" parent="1" vertex="1">
          <mxGeometry x="66" y="2590" width="40" height="30" as="geometry" />
        </mxCell>
        <mxCell id="_CMsbmeQKkCQ8cWOa_Xa-154" value="0...*" style="text;html=1;align=center;verticalAlign=middle;resizable=0;points=[];autosize=1;strokeColor=none;fillColor=none;labelBackgroundColor=none;" parent="1" vertex="1">
          <mxGeometry x="205" y="2606" width="40" height="30" as="geometry" />
        </mxCell>
        <mxCell id="_CMsbmeQKkCQ8cWOa_Xa-155" value="" style="edgeStyle=none;curved=1;rounded=0;orthogonalLoop=1;jettySize=auto;html=1;fontSize=12;startSize=8;endSize=8;entryX=1;entryY=0.5;entryDx=0;entryDy=0;exitX=0;exitY=0.5;exitDx=0;exitDy=0;endArrow=none;startFill=0;labelBackgroundColor=none;" parent="1" source="_CMsbmeQKkCQ8cWOa_Xa-173" target="_CMsbmeQKkCQ8cWOa_Xa-167" edge="1">
          <mxGeometry relative="1" as="geometry">
            <mxPoint x="795.4060332541567" y="2599.5" as="sourcePoint" />
            <mxPoint x="815.0022327790971" y="2737" as="targetPoint" />
          </mxGeometry>
        </mxCell>
        <mxCell id="_CMsbmeQKkCQ8cWOa_Xa-156" value="" style="endArrow=none;html=1;rounded=0;labelBackgroundColor=none;entryX=0.468;entryY=1.044;entryDx=0;entryDy=0;entryPerimeter=0;" parent="1" source="_CMsbmeQKkCQ8cWOa_Xa-175" target="_CMsbmeQKkCQ8cWOa_Xa-174" edge="1">
          <mxGeometry relative="1" as="geometry">
            <mxPoint x="595" y="2599.5" as="sourcePoint" />
            <mxPoint x="695" y="2562.5" as="targetPoint" />
          </mxGeometry>
        </mxCell>
        <mxCell id="_CMsbmeQKkCQ8cWOa_Xa-157" value="1...1" style="edgeLabel;resizable=0;html=1;align=left;verticalAlign=bottom;labelBackgroundColor=none;" parent="_CMsbmeQKkCQ8cWOa_Xa-156" connectable="0" vertex="1">
          <mxGeometry relative="1" as="geometry">
            <mxPoint x="-31" y="47" as="offset" />
          </mxGeometry>
        </mxCell>
        <mxCell id="_CMsbmeQKkCQ8cWOa_Xa-158" value="0...*" style="edgeLabel;resizable=0;html=1;align=right;verticalAlign=bottom;labelBackgroundColor=none;" parent="_CMsbmeQKkCQ8cWOa_Xa-156" connectable="0" vertex="1">
          <mxGeometry relative="1" as="geometry">
            <mxPoint x="29" y="-34" as="offset" />
          </mxGeometry>
        </mxCell>
        <mxCell id="_CMsbmeQKkCQ8cWOa_Xa-159" value="is for" style="text;html=1;align=center;verticalAlign=middle;resizable=0;points=[];autosize=1;strokeColor=none;fillColor=none;labelBackgroundColor=none;" parent="1" vertex="1">
          <mxGeometry x="195" y="2658" width="50" height="30" as="geometry" />
        </mxCell>
        <mxCell id="_CMsbmeQKkCQ8cWOa_Xa-160" value="Includes" style="text;html=1;align=center;verticalAlign=middle;resizable=0;points=[];autosize=1;strokeColor=none;fillColor=none;labelBackgroundColor=none;" parent="1" vertex="1">
          <mxGeometry x="190" y="2432" width="70" height="30" as="geometry" />
        </mxCell>
        <mxCell id="_CMsbmeQKkCQ8cWOa_Xa-161" value="&amp;lt;&amp;lt;enumeration&amp;gt;&amp;gt;&lt;br&gt;LuggageStatus" style="swimlane;fontStyle=0;childLayout=stackLayout;horizontal=1;startSize=39;fillColor=none;horizontalStack=0;resizeParent=1;resizeParentMax=0;resizeLast=0;collapsible=1;marginBottom=0;whiteSpace=wrap;html=1;labelBackgroundColor=none;" parent="1" vertex="1">
          <mxGeometry x="395" y="2260" width="140" height="159" as="geometry" />
        </mxCell>
        <mxCell id="_CMsbmeQKkCQ8cWOa_Xa-162" value="booked" style="text;strokeColor=none;fillColor=none;align=left;verticalAlign=top;spacingLeft=4;spacingRight=4;overflow=hidden;rotatable=0;points=[[0,0.5],[1,0.5]];portConstraint=eastwest;whiteSpace=wrap;html=1;labelBackgroundColor=none;" parent="_CMsbmeQKkCQ8cWOa_Xa-161" vertex="1">
          <mxGeometry y="39" width="140" height="30" as="geometry" />
        </mxCell>
        <mxCell id="_CMsbmeQKkCQ8cWOa_Xa-163" value="loaded" style="text;strokeColor=none;fillColor=none;align=left;verticalAlign=top;spacingLeft=4;spacingRight=4;overflow=hidden;rotatable=0;points=[[0,0.5],[1,0.5]];portConstraint=eastwest;whiteSpace=wrap;html=1;labelBackgroundColor=none;" parent="_CMsbmeQKkCQ8cWOa_Xa-161" vertex="1">
          <mxGeometry y="69" width="140" height="30" as="geometry" />
        </mxCell>
        <mxCell id="_CMsbmeQKkCQ8cWOa_Xa-164" value="withdrawable" style="text;strokeColor=none;fillColor=none;align=left;verticalAlign=top;spacingLeft=4;spacingRight=4;overflow=hidden;rotatable=0;points=[[0,0.5],[1,0.5]];portConstraint=eastwest;whiteSpace=wrap;html=1;labelBackgroundColor=none;" parent="_CMsbmeQKkCQ8cWOa_Xa-161" vertex="1">
          <mxGeometry y="99" width="140" height="30" as="geometry" />
        </mxCell>
        <mxCell id="_CMsbmeQKkCQ8cWOa_Xa-165" value="lost" style="text;strokeColor=none;fillColor=none;align=left;verticalAlign=top;spacingLeft=4;spacingRight=4;overflow=hidden;rotatable=0;points=[[0,0.5],[1,0.5]];portConstraint=eastwest;whiteSpace=wrap;html=1;labelBackgroundColor=none;" parent="_CMsbmeQKkCQ8cWOa_Xa-161" vertex="1">
          <mxGeometry y="129" width="140" height="30" as="geometry" />
        </mxCell>
        <mxCell id="_CMsbmeQKkCQ8cWOa_Xa-166" value="&lt;div&gt;&amp;lt;&amp;lt;enumeration&amp;gt;&amp;gt;&lt;/div&gt;&lt;div&gt;LuggageType&lt;/div&gt;" style="swimlane;fontStyle=0;childLayout=stackLayout;horizontal=1;startSize=37;fillColor=none;horizontalStack=0;resizeParent=1;resizeParentMax=0;resizeLast=0;collapsible=1;marginBottom=0;whiteSpace=wrap;html=1;labelBackgroundColor=none;" parent="1" vertex="1">
          <mxGeometry x="-105" y="2291" width="140" height="97" as="geometry" />
        </mxCell>
        <mxCell id="_CMsbmeQKkCQ8cWOa_Xa-167" value="carry_on" style="text;strokeColor=none;fillColor=none;align=left;verticalAlign=top;spacingLeft=4;spacingRight=4;overflow=hidden;rotatable=0;points=[[0,0.5],[1,0.5]];portConstraint=eastwest;whiteSpace=wrap;html=1;labelBackgroundColor=none;" parent="_CMsbmeQKkCQ8cWOa_Xa-166" vertex="1">
          <mxGeometry y="37" width="140" height="30" as="geometry" />
        </mxCell>
        <mxCell id="_CMsbmeQKkCQ8cWOa_Xa-168" value="checked" style="text;strokeColor=none;fillColor=none;align=left;verticalAlign=top;spacingLeft=4;spacingRight=4;overflow=hidden;rotatable=0;points=[[0,0.5],[1,0.5]];portConstraint=eastwest;whiteSpace=wrap;html=1;labelBackgroundColor=none;" parent="_CMsbmeQKkCQ8cWOa_Xa-166" vertex="1">
          <mxGeometry y="67" width="140" height="30" as="geometry" />
        </mxCell>
        <mxCell id="_CMsbmeQKkCQ8cWOa_Xa-169" value="" style="endArrow=none;html=1;rounded=0;entryX=0;entryY=0.333;entryDx=0;entryDy=0;exitX=1.003;exitY=0.323;exitDx=0;exitDy=0;exitPerimeter=0;entryPerimeter=0;labelBackgroundColor=none;" parent="1" source="_CMsbmeQKkCQ8cWOa_Xa-173" target="_CMsbmeQKkCQ8cWOa_Xa-163" edge="1">
          <mxGeometry relative="1" as="geometry">
            <mxPoint x="715" y="2573.5" as="sourcePoint" />
            <mxPoint x="875" y="2573.5" as="targetPoint" />
          </mxGeometry>
        </mxCell>
        <mxCell id="_CMsbmeQKkCQ8cWOa_Xa-170" value="" style="group;labelBackgroundColor=none;" parent="1" vertex="1" connectable="0">
          <mxGeometry x="95" y="2272" width="190" height="116" as="geometry" />
        </mxCell>
        <mxCell id="_CMsbmeQKkCQ8cWOa_Xa-171" value="Luggage" style="swimlane;fontStyle=0;childLayout=stackLayout;horizontal=1;startSize=26;fillColor=none;horizontalStack=0;resizeParent=1;resizeParentMax=0;resizeLast=0;collapsible=1;marginBottom=0;whiteSpace=wrap;html=1;points=[[0,0,0,0,0],[0,0.25,0,0,0],[0,0.5,0,0,0],[0,0.75,0,0,0],[0,1,0,0,0],[0.25,0,0,0,0],[0.25,1,0,0,0],[0.5,0,0,0,0],[0.5,1,0,0,0],[0.75,0,0,0,0],[0.75,1,0,0,0],[1,0,0,0,0],[1,0.25,0,0,0],[1,0.5,0,0,0],[1,0.75,0,0,0],[1,1,0,0,0]];container=0;labelBackgroundColor=none;" parent="_CMsbmeQKkCQ8cWOa_Xa-170" vertex="1">
          <mxGeometry width="190" height="116" as="geometry" />
        </mxCell>
        <mxCell id="_CMsbmeQKkCQ8cWOa_Xa-172" value="id_luggage_after_check_in[0...1]" style="text;strokeColor=none;fillColor=none;align=left;verticalAlign=top;spacingLeft=4;spacingRight=4;overflow=hidden;rotatable=0;points=[[0,0.5],[1,0.5]];portConstraint=eastwest;whiteSpace=wrap;html=1;labelBackgroundColor=none;" parent="_CMsbmeQKkCQ8cWOa_Xa-170" vertex="1">
          <mxGeometry y="26" width="190" height="30" as="geometry" />
        </mxCell>
        <mxCell id="_CMsbmeQKkCQ8cWOa_Xa-173" value="type: LuggageType[0...1]" style="text;strokeColor=none;fillColor=none;align=left;verticalAlign=top;spacingLeft=4;spacingRight=4;overflow=hidden;rotatable=0;points=[[0,0.5],[1,0.5]];portConstraint=eastwest;whiteSpace=wrap;html=1;labelBackgroundColor=none;" parent="_CMsbmeQKkCQ8cWOa_Xa-170" vertex="1">
          <mxGeometry y="56" width="190" height="30" as="geometry" />
        </mxCell>
        <mxCell id="_CMsbmeQKkCQ8cWOa_Xa-174" value="luggage_status: LuggageStatus" style="text;strokeColor=none;fillColor=none;align=left;verticalAlign=top;spacingLeft=4;spacingRight=4;overflow=hidden;rotatable=0;points=[[0,0.5],[1,0.5]];portConstraint=eastwest;whiteSpace=wrap;html=1;labelBackgroundColor=none;" parent="_CMsbmeQKkCQ8cWOa_Xa-170" vertex="1">
          <mxGeometry y="86" width="190" height="30" as="geometry" />
        </mxCell>
        <mxCell id="_CMsbmeQKkCQ8cWOa_Xa-175" value="Ticket" style="swimlane;fontStyle=0;childLayout=stackLayout;horizontal=1;startSize=26;fillColor=none;horizontalStack=0;resizeParent=1;resizeParentMax=0;resizeLast=0;collapsible=1;marginBottom=0;whiteSpace=wrap;html=1;" parent="1" vertex="1">
          <mxGeometry x="120" y="2502" width="140" height="104" as="geometry" />
        </mxCell>
        <mxCell id="_CMsbmeQKkCQ8cWOa_Xa-176" value="ticket_number{id}" style="text;strokeColor=none;fillColor=none;align=left;verticalAlign=top;spacingLeft=4;spacingRight=4;overflow=hidden;rotatable=0;points=[[0,0.5],[1,0.5]];portConstraint=eastwest;whiteSpace=wrap;html=1;" parent="_CMsbmeQKkCQ8cWOa_Xa-175" vertex="1">
          <mxGeometry y="26" width="140" height="26" as="geometry" />
        </mxCell>
        <mxCell id="_CMsbmeQKkCQ8cWOa_Xa-177" value="seat[0...1]" style="text;strokeColor=none;fillColor=none;align=left;verticalAlign=top;spacingLeft=4;spacingRight=4;overflow=hidden;rotatable=0;points=[[0,0.5],[1,0.5]];portConstraint=eastwest;whiteSpace=wrap;html=1;" parent="_CMsbmeQKkCQ8cWOa_Xa-175" vertex="1">
          <mxGeometry y="52" width="140" height="26" as="geometry" />
        </mxCell>
        <mxCell id="_CMsbmeQKkCQ8cWOa_Xa-178" value="checked_in[0...*]" style="text;strokeColor=none;fillColor=none;align=left;verticalAlign=top;spacingLeft=4;spacingRight=4;overflow=hidden;rotatable=0;points=[[0,0.5],[1,0.5]];portConstraint=eastwest;whiteSpace=wrap;html=1;" parent="_CMsbmeQKkCQ8cWOa_Xa-175" vertex="1">
          <mxGeometry y="78" width="140" height="26" as="geometry" />
        </mxCell>
        <mxCell id="_CMsbmeQKkCQ8cWOa_Xa-179" value="" style="endArrow=none;html=1;rounded=0;fontSize=12;startSize=8;endSize=8;curved=1;" parent="1" source="y5apXLOZBL3ZthfMlJ1x-29" target="_CMsbmeQKkCQ8cWOa_Xa-175" edge="1">
          <mxGeometry width="50" height="50" relative="1" as="geometry">
            <mxPoint x="203" y="2740" as="sourcePoint" />
            <mxPoint x="365" y="2602" as="targetPoint" />
          </mxGeometry>
        </mxCell>
        <mxCell id="_CMsbmeQKkCQ8cWOa_Xa-180" value="1...1" style="text;strokeColor=none;align=center;fillColor=none;html=1;verticalAlign=middle;whiteSpace=wrap;rounded=0;fontSize=11;" parent="1" vertex="1">
          <mxGeometry x="195" y="2706" width="60" height="30" as="geometry" />
        </mxCell>
        <mxCell id="_CMsbmeQKkCQ8cWOa_Xa-181" value="" style="endArrow=none;html=1;rounded=0;fontSize=12;startSize=8;endSize=8;curved=1;" parent="1" source="_CMsbmeQKkCQ8cWOa_Xa-148" target="_CMsbmeQKkCQ8cWOa_Xa-175" edge="1">
          <mxGeometry width="50" height="50" relative="1" as="geometry">
            <mxPoint x="45" y="2662" as="sourcePoint" />
            <mxPoint x="95" y="2612" as="targetPoint" />
          </mxGeometry>
        </mxCell>
        <mxCell id="_CMsbmeQKkCQ8cWOa_Xa-182" value="1...1" style="text;strokeColor=none;align=center;fillColor=none;html=1;verticalAlign=middle;whiteSpace=wrap;rounded=0;fontSize=11;" parent="1" vertex="1">
          <mxGeometry x="-95" y="2530" width="40" height="30" as="geometry" />
        </mxCell>
        <mxCell id="_CMsbmeQKkCQ8cWOa_Xa-183" value="0...*" style="text;strokeColor=none;align=center;fillColor=none;html=1;verticalAlign=middle;whiteSpace=wrap;rounded=0;fontSize=12;" parent="1" vertex="1">
          <mxGeometry x="85" y="2530" width="35" height="30" as="geometry" />
        </mxCell>
        <mxCell id="_CMsbmeQKkCQ8cWOa_Xa-184" value="Has" style="text;html=1;align=center;verticalAlign=middle;resizable=0;points=[];autosize=1;strokeColor=none;fillColor=none;" parent="1" vertex="1">
          <mxGeometry x="-15" y="2530" width="40" height="30" as="geometry" />
        </mxCell>
        <mxCell id="_CMsbmeQKkCQ8cWOa_Xa-185" value="Includes" style="text;html=1;align=center;verticalAlign=middle;resizable=0;points=[];autosize=1;strokeColor=none;fillColor=none;" parent="1" vertex="1">
          <mxGeometry x="-74" y="2676" width="70" height="30" as="geometry" />
        </mxCell>
        <mxCell id="_CMsbmeQKkCQ8cWOa_Xa-186" value="&lt;div&gt;&lt;br&gt;&lt;/div&gt;&lt;div&gt;&lt;br&gt;&lt;/div&gt;" style="endArrow=none;html=1;startArrow=none;startFill=0;align=left;verticalAlign=bottom;rounded=0;labelBackgroundColor=none;endFill=0;" parent="1" source="y5apXLOZBL3ZthfMlJ1x-14" target="_CMsbmeQKkCQ8cWOa_Xa-175" edge="1">
          <mxGeometry x="-0.8676" y="29" relative="1" as="geometry">
            <mxPoint y="2944" as="sourcePoint" />
            <mxPoint x="242" y="2750" as="targetPoint" />
            <mxPoint as="offset" />
          </mxGeometry>
        </mxCell>
        <mxCell id="_CMsbmeQKkCQ8cWOa_Xa-187" value="1...1" style="text;html=1;align=center;verticalAlign=middle;resizable=0;points=[];autosize=1;strokeColor=none;fillColor=none;" parent="1" vertex="1">
          <mxGeometry x="-175" y="2768" width="50" height="30" as="geometry" />
        </mxCell>
      </root>
    </mxGraphModel>
  </diagram>
</mxfile>
